<svg width="1103" height="312" viewBox="0 0 1103 312" fill="none" xmlns="http://www.w3.org/2000/svg">
<path fill-rule="evenodd" clip-rule="evenodd" d="M-7.47452 219.455C-5.37452 218.655 -3.17451 217.655 -0.87451 217.355C12.7255 215.755 26.3255 214.555 39.9255 212.655C46.2255 211.855 52.5255 209.855 58.8255 208.355C59.3255 208.255 59.8255 207.255 59.9255 206.655C60.0255 206.055 59.8255 204.955 59.3255 204.855C56.3255 204.255 53.2255 203.655 50.1255 203.455C44.9255 203.155 44.3255 200.155 44.6255 196.455C59.6255 192.555 74.8255 191.055 90.1255 189.555C94.0255 189.255 98.0255 188.055 101.925 187.155C102.625 186.955 103.425 186.055 103.525 185.555C103.625 185.055 102.925 184.055 102.325 183.955C96.2255 183.055 90.1255 181.455 83.8255 181.555C68.3255 181.755 54.1255 177.655 39.0255 176.655C37.9255 176.555 36.4255 174.855 36.3255 173.755C36.2255 172.755 37.6255 171.055 38.7255 170.455C43.1255 168.355 47.8255 166.655 50.4255 162.455C50.8255 161.855 51.5255 160.755 51.3255 160.455C50.4255 159.655 49.3255 158.755 48.1255 158.555C46.6255 158.355 44.8255 159.155 43.3255 158.855C42.3255 158.655 40.7255 157.355 40.8255 156.655C41.0255 155.355 42.2255 154.055 43.2255 152.855C43.7255 152.355 44.6255 151.955 45.3255 151.755C54.1255 150.055 62.9255 147.855 71.8255 146.955C88.7255 145.155 105.525 144.355 122.025 137.955C128.725 135.355 136.425 134.055 143.525 133.955C158.125 133.655 172.625 130.755 187.125 129.655C197.825 128.955 208.125 126.955 218.425 124.355C231.925 120.855 245.525 118.255 259.225 116.755C285.825 113.955 312.525 111.555 339.125 109.155C352.825 107.855 366.525 107.455 380.225 106.355C419.725 103.155 459.425 99.7551 498.825 99.8551C530.125 99.9551 561.526 97.8551 592.826 97.0551C626.726 96.2551 660.526 94.9551 694.426 93.8551C708.126 93.4551 721.826 93.0551 735.526 92.4551C739.526 92.2551 743.526 91.2551 747.526 90.5551C749.726 90.1551 751.726 87.7551 751.026 85.6551C750.726 84.4551 749.825 82.8551 748.725 82.5551C745.825 81.9551 742.426 82.3551 739.526 81.6551C725.726 78.4551 711.726 77.8551 696.826 79.7551C682.426 81.5551 667.926 81.0551 653.426 81.3551C645.426 81.5551 637.426 80.9551 629.426 81.1551C605.326 81.5551 581.126 82.8551 557.026 83.1551C537.826 83.3551 518.325 84.3551 499.025 85.8551C485.325 86.9551 471.725 88.0551 458.025 87.9551C444.425 87.8551 430.725 88.3551 417.025 89.1551C409.825 89.5551 402.525 91.7551 395.325 92.0551C368.725 92.9551 342.026 96.2551 315.426 98.8551C293.526 101.055 271.725 102.955 250.025 107.255C237.825 109.655 225.925 108.055 213.925 108.255C210.425 108.355 207.125 105.855 202.725 106.255C181.725 108.355 160.725 110.355 139.725 112.155C136.525 112.455 133.325 112.355 130.125 112.155C129.525 112.155 128.325 111.355 128.425 111.055C128.825 110.055 129.425 108.355 130.225 108.055C134.925 106.555 139.625 104.555 144.325 104.055C162.925 102.255 181.325 97.5551 200.025 97.5551C202.425 97.5551 205.025 97.5551 207.225 96.6551C217.425 92.2551 228.026 92.5551 238.426 91.5551C252.826 90.2551 267.225 88.2551 281.525 85.5551C281.525 85.6884 281.525 85.7884 281.525 85.8551C281.792 85.7217 282.092 85.5884 282.426 85.4551C289.226 85.2551 295.926 82.2551 302.926 83.6551C307.626 84.6551 312.125 82.1551 316.625 80.4551C319.725 79.1551 322.725 78.9551 325.525 80.2551C325.525 80.1551 325.625 80.0551 325.625 79.9551C327.425 80.4551 329.325 80.7551 328.025 78.0551C327.725 77.4551 325.925 78.5551 325.625 79.9551C325.492 79.8884 325.359 79.8551 325.225 79.8551C315.425 75.3551 305.226 75.0551 294.426 80.0551C290.426 81.8551 286.426 83.6551 282.426 85.4551C282.226 85.5217 282.025 85.5551 281.825 85.5551C281.759 85.5551 281.659 85.5551 281.525 85.5551C281.725 83.5551 281.425 81.4551 278.725 81.3551C270.825 80.9551 262.825 81.2551 254.725 83.8551C250.925 85.1551 246.926 85.8551 242.926 86.2551C220.392 88.5884 197.859 90.8217 175.325 92.9551C168.925 93.6551 162.525 93.8551 155.925 94.3551C156.225 93.3551 156.225 92.4551 156.725 92.0551C158.025 91.1551 159.625 90.5551 160.925 89.6551C161.625 89.2551 162.425 88.0551 162.325 87.9551C161.525 87.0551 160.425 85.5551 159.425 85.6551C153.825 86.1551 148.125 86.9551 142.525 87.7551C138.525 88.3551 134.425 89.7551 130.625 89.5551C118.625 88.8551 106.525 89.5551 94.5255 90.0551C88.6255 90.3551 83.6255 88.7551 78.7255 86.6551C78.1255 86.3551 77.2255 85.3551 77.3255 85.1551C78.1255 84.0551 79.1255 83.1551 80.2255 82.2551C80.7255 81.7551 81.7255 81.3551 82.4255 81.3551C100.125 80.9551 117.725 76.4551 135.425 76.6551C140.225 76.6551 145.125 75.8551 149.925 75.2551C157.225 74.4551 164.425 73.1551 171.625 72.5551C195.925 70.7551 220.125 69.1551 244.325 67.2551C249.125 66.8551 254.025 66.2551 258.825 65.0551C274.925 61.2551 291.126 61.2551 306.926 61.4551C323.026 61.6551 339.025 60.6551 355.125 59.0551C361.525 58.4551 368.125 59.2551 374.125 57.6551C381.525 55.5551 388.625 56.2551 395.825 55.7551C403.025 55.2551 410.226 56.4551 417.426 55.7551C440.026 53.5551 462.526 53.0551 484.926 53.7551C496.826 54.1551 508.926 52.9551 521.026 52.2551C533.026 51.6551 545.026 50.3551 557.026 49.9551C586.026 48.9551 615.025 45.9551 644.125 43.1551C659.425 41.7551 674.626 41.2551 689.926 41.1551C713.226 40.9551 736.626 39.6551 760.026 38.8551C768.126 38.5551 775.726 37.0551 783.526 33.3551C791.826 29.3551 800.625 29.5551 808.225 34.2551C810.025 35.3551 812.025 36.8551 814.125 37.0551C825.925 38.0551 837.826 40.1551 848.926 31.5551C850.426 30.3551 853.726 31.1551 855.926 30.3551C859.626 29.0551 860.526 26.4551 858.826 22.8551C852.126 22.6551 844.926 22.7551 837.826 22.1551C829.926 21.5551 822.125 20.0551 814.625 25.6551C813.725 26.3551 811.426 26.1551 810.026 25.7551C805.726 24.4551 800.925 23.7551 798.125 20.1551L797.826 20.6551C797.559 20.5217 797.325 20.3884 797.125 20.2551C797.392 20.2551 797.659 20.2217 797.926 20.1551C799.426 14.4551 797.526 10.2551 791.526 7.75507C788.526 6.45507 785.526 5.15507 782.526 3.85507C790.926 1.35507 799.226 0.155086 807.826 1.55509C811.526 2.15509 815.725 1.35507 819.625 1.25507C833.325 1.05507 846.925 0.955061 860.625 0.655061C891.125 0.155061 921.425 1.85509 952.125 0.0550858C956.925 -0.244914 961.525 0.755067 966.225 1.25507C968.125 1.45507 969.525 4.75508 968.225 6.45508C967.425 7.55508 965.926 8.35507 964.826 9.35507C962.426 11.5551 962.826 15.5551 965.526 15.8551C971.026 16.3551 976.526 16.4551 982.026 17.1551C984.226 17.3551 986.926 18.3551 988.026 19.7551C991.326 24.2551 994.426 29.0551 993.426 35.0551C993.226 36.0551 991.626 37.7551 990.426 37.9551C984.726 39.1551 979.425 38.5551 974.725 35.5551C969.225 32.0551 963.625 28.5551 957.625 25.5551C956.025 24.7551 953.026 25.2551 950.826 25.7551C949.326 26.0551 948.225 27.6551 946.725 28.2551C938.925 31.5551 934.326 38.0551 928.426 43.1551C927.626 43.8551 927.526 45.8551 928.026 46.8551C928.626 47.8551 930.326 48.9551 931.526 48.9551C940.426 48.8551 949.225 48.8551 958.125 48.1551C979.225 46.3551 999.826 46.6551 1019.83 51.0551C1024.83 52.1551 1029.33 50.1551 1032.83 45.6551C1037.93 46.7551 1043.23 47.9551 1048.93 49.1551C1049.13 45.2551 1049.23 41.9551 1049.43 38.7551C1054.03 36.3551 1058.33 34.1551 1061.83 32.3551C1069.73 32.9551 1076.83 33.4551 1083.93 34.1551C1086.13 34.4551 1088.43 35.1551 1090.33 36.1551C1091.43 36.7551 1092.43 38.2551 1092.33 39.4551C1092.33 40.4551 1090.93 42.1551 1089.73 42.5551C1086.83 43.5551 1083.03 43.0551 1081.53 46.3551C1078.73 52.1551 1074.13 50.6551 1069.63 49.9551C1066.33 51.7551 1066.13 54.7551 1064.93 57.2551C1063.03 61.2551 1061.63 65.4551 1059.63 69.4551C1058.53 71.6551 1056.03 72.2551 1053.63 71.3551C1050.33 70.0551 1047.63 70.2551 1045.83 73.8551C1043.93 77.6551 1041.03 79.5551 1036.23 78.4551C1034.93 78.1551 1033.23 78.7551 1031.43 78.9551C1028.03 83.0551 1024.33 87.0551 1021.33 91.4551C1020.23 93.0551 1020.13 95.7551 1020.93 97.4551C1022.03 99.8551 1024.33 101.855 1026.33 103.855C1029.73 107.255 1029.93 111.055 1027.93 115.455C1027.13 117.255 1027.13 119.255 1026.73 121.155C1034.03 123.555 1041.33 123.355 1048.53 123.055C1053.43 122.855 1057.93 120.755 1061.63 117.355C1064.63 114.655 1064.43 109.955 1060.73 108.455C1058.63 107.655 1056.13 107.555 1054.03 106.855C1052.13 106.355 1050.63 105.255 1048.23 104.155C1053.13 99.7551 1057.13 96.0551 1061.23 92.2551C1061.23 92.3551 1061.33 92.4551 1061.53 92.5551C1061.46 92.6218 1061.39 92.7217 1061.33 92.8551C1062.03 92.6551 1061.73 92.6551 1061.53 92.5551C1062.83 89.9551 1063.83 87.2551 1065.53 84.9551C1066.83 83.2551 1069.13 80.9551 1070.93 80.8551C1076.23 80.4551 1077.53 77.3551 1078.83 73.7551C1079.53 71.8551 1080.53 69.1551 1083.13 69.8551C1084.83 70.2551 1085.83 72.9551 1086.23 74.8551C1087.23 78.9551 1086.23 83.0551 1084.33 87.2551C1083.53 89.0551 1083.83 91.2551 1083.83 93.2551C1083.83 93.6551 1085.43 94.2551 1085.73 94.0551C1087.73 92.9551 1089.83 91.7551 1091.43 90.2551C1096.13 85.8551 1093.43 78.9551 1099.33 74.8551C1100.23 75.8551 1101.63 76.7551 1101.83 77.8551C1102.63 83.3551 1102.13 88.8551 1097.23 93.6551C1096.13 94.7551 1094.73 95.9551 1094.53 97.2551C1093.03 105.455 1090.53 113.655 1089.83 121.955C1087.93 119.055 1086.13 116.155 1084.13 113.355C1083.33 112.455 1082.03 111.855 1080.83 111.155C1079.43 110.455 1076.23 112.455 1075.33 114.755C1074.53 116.755 1074.13 118.955 1073.23 120.955C1069.53 128.955 1064.13 134.855 1053.23 134.255C1051.93 134.155 1050.33 135.155 1049.03 135.855C1048.53 136.055 1048.23 137.055 1048.23 137.655C1048.23 138.355 1048.73 139.355 1049.23 139.455C1051.33 139.855 1053.73 140.555 1055.83 140.155C1059.73 139.355 1063.73 136.955 1067.43 138.555C1068.93 139.255 1069.63 141.755 1069.93 143.555C1070.03 144.255 1067.63 146.155 1066.53 146.155C1062.63 146.155 1058.83 145.655 1055.43 145.355C1047.33 150.155 1039.63 154.555 1032.03 159.055C1030.93 159.755 1029.73 161.655 1029.93 162.655C1030.03 163.655 1031.73 164.555 1033.03 165.055C1036.93 166.555 1040.93 167.855 1044.93 169.255C1044.99 169.455 1045.06 169.622 1045.13 169.755C1043.73 170.255 1042.33 170.855 1041.03 170.755C1030.23 169.855 1020.43 173.855 1010.73 177.955C1008.73 178.855 1006.73 180.755 1005.93 182.555C1004.53 185.655 1006.43 190.555 1009.13 191.655C1010.43 192.255 1012.23 192.655 1013.53 192.255C1017.43 191.155 1021.23 189.855 1024.83 187.955C1027.73 186.455 1029.23 187.755 1031.13 188.755C1035.83 191.255 1040.13 189.455 1044.33 186.555C1047.23 184.555 1048.53 181.855 1047.93 179.055C1047.33 175.855 1046.13 172.855 1045.13 169.755C1045.33 169.688 1045.53 169.622 1045.73 169.555C1051.43 172.355 1057.23 175.055 1060.23 180.555C1061.33 182.455 1061.53 186.855 1059.93 188.455C1052.23 196.155 1044.33 203.655 1031.93 204.655C1024.73 205.255 1017.53 206.055 1010.53 208.555C1006.63 210.055 1003.23 211.855 1001.83 215.955C1006.33 220.155 1010.93 224.255 1015.33 228.555C1017.53 230.755 1017.03 233.555 1015.83 236.355C1015.36 237.555 1014.86 238.755 1014.33 239.955C1014.33 240.088 1014.29 240.188 1014.23 240.255C1014.23 240.322 1014.19 240.388 1014.13 240.455V239.955C1012.03 238.655 1009.03 238.755 1008.13 240.855C1005.03 247.755 1001.23 248.155 995.725 243.955C994.825 243.255 992.725 243.455 991.225 243.655C985.325 244.755 980.725 247.955 976.625 251.855C973.425 254.855 973.025 258.155 972.625 261.855C972.025 269.355 971.026 269.955 962.426 270.255C960.326 270.355 957.726 268.855 955.826 272.655C955.726 273.955 955.626 276.055 955.326 278.055C954.726 282.155 951.026 285.155 947.326 284.555C944.226 284.055 941.125 282.255 938.225 282.655C928.225 284.255 919.325 282.655 910.125 280.555C903.425 279.155 895.825 279.755 888.625 280.055C885.525 280.155 882.326 281.555 879.326 282.855C876.926 283.955 876.425 285.655 877.625 288.055C879.525 291.655 875.726 294.755 873.826 297.755C872.926 299.155 869.726 299.755 867.426 300.355C864.526 301.155 860.825 300.855 860.225 304.755C858.725 298.655 854.125 295.955 847.125 295.655C845.825 295.655 844.626 295.055 843.326 294.655C835.326 296.155 835.226 296.155 835.326 302.355C835.326 303.055 835.625 303.755 835.625 304.455C835.525 306.555 832.725 308.255 830.625 307.655C825.125 306.155 821.126 303.155 819.826 298.155C819.126 295.555 819.526 292.555 818.926 289.855C817.226 282.255 810.825 278.555 801.625 279.855C799.325 280.155 796.626 280.855 794.826 282.155C786.626 288.455 776.825 293.055 769.625 300.555C769.025 301.155 766.726 300.655 765.426 300.355C765.026 300.255 765.026 299.155 764.926 298.455C764.626 294.855 766.026 291.455 767.926 288.155C771.526 281.455 769.326 279.755 761.026 279.455C757.026 279.322 752.992 279.322 748.926 279.455C723.992 280.188 699.059 280.955 674.125 281.755C645.925 282.655 617.726 283.255 589.526 284.555C560.526 286.055 531.625 285.755 502.525 289.855C499.325 290.355 496.126 289.855 492.926 289.855C469.626 289.955 446.326 290.555 422.926 291.955C391.526 293.855 360.025 294.855 328.625 297.555C298.825 300.155 269.025 301.655 239.225 305.355C222.325 307.455 205.425 307.555 188.525 311.255C184.325 312.155 179.225 312.855 175.525 309.455C182.725 307.055 189.625 304.655 196.525 302.455C198.025 301.955 199.825 301.655 201.325 301.755C205.325 301.755 209.225 302.255 213.225 302.255C215.525 302.255 218.225 302.355 220.325 301.555C229.825 297.955 239.625 298.255 249.225 297.355C276.625 294.855 304.026 292.555 331.426 290.255C341.126 289.355 350.926 287.855 360.426 287.955C387.726 288.155 415.225 284.855 442.525 284.055C467.525 283.255 492.526 281.155 517.426 281.055C544.726 280.955 572.226 278.755 599.526 277.755C614.826 277.155 630.226 275.755 645.526 274.755C651.026 272.755 656.426 273.055 661.926 273.255C666.526 273.355 671.326 272.755 676.026 272.155C677.126 271.955 678.126 270.255 679.226 269.355C678.626 268.955 678.126 268.155 677.526 268.055C666.226 266.455 655.726 269.855 645.426 274.755C644.326 269.555 639.926 268.655 634.826 268.855C583.326 270.955 531.725 273.855 480.325 274.555C440.925 275.155 401.225 278.055 361.725 280.455C340.725 281.755 319.725 284.255 298.725 285.855C276.925 287.555 255.126 288.655 233.426 290.255C228.526 290.555 223.725 291.655 218.825 292.155C197.892 294.488 176.925 296.755 155.925 298.955C134.925 301.155 113.925 303.155 93.0255 305.555C89.0255 305.955 85.1255 307.555 81.2255 308.655C81.3255 308.755 81.4255 308.855 81.5255 309.055C81.3255 309.188 81.1588 309.355 81.0255 309.555C81.5255 304.955 80.9255 303.255 78.4255 303.255C75.4255 303.355 72.3255 304.055 69.2255 304.055C67.0255 304.155 64.6255 303.755 62.7255 302.955C61.7255 302.555 61.2255 301.055 60.9255 299.855C60.8255 299.455 61.6255 298.355 62.2255 298.155C67.4255 296.255 72.6255 294.555 77.9255 292.855C77.8255 292.955 77.7255 293.155 77.6255 293.355C77.8255 293.222 78.0588 293.122 78.3255 293.055C79.2255 293.555 80.1255 294.155 81.2255 294.455C81.7255 294.655 82.8255 294.255 83.1255 293.855C84.3255 292.155 83.6255 291.355 81.5255 291.755C80.4255 292.055 79.4255 292.555 78.3255 293.055C78.1921 292.988 78.0588 292.922 77.9255 292.855C79.6255 289.755 82.1255 287.255 85.7255 285.455C88.4255 284.155 92.0255 283.755 92.9255 280.355C92.9255 277.655 92.8255 275.055 92.8255 271.755C98.3255 269.355 103.825 266.955 109.425 264.655C109.559 264.722 109.692 264.788 109.825 264.855C110.025 264.788 110.225 264.688 110.425 264.555C112.025 266.555 114.525 267.155 117.425 266.355C119.925 265.755 122.325 264.655 124.725 263.755C124.925 263.855 125.025 263.955 125.225 264.055C125.425 263.922 125.625 263.788 125.825 263.655C126.625 264.255 127.425 264.855 128.325 265.255C128.525 265.355 129.725 264.455 129.725 264.355C128.825 262.255 127.325 262.955 125.825 263.655C125.759 263.588 125.659 263.522 125.525 263.455C125.259 263.522 124.992 263.622 124.725 263.755C120.125 260.055 115.325 261.955 110.425 264.555C110.325 264.455 110.225 264.455 110.125 264.355C109.859 264.422 109.625 264.522 109.425 264.655C107.625 263.655 106.025 262.355 104.025 261.955C94.8255 260.155 85.4255 259.455 75.7255 259.755C69.4255 259.855 62.9255 260.455 56.4255 258.655C52.8255 254.055 49.1255 249.255 44.7255 243.555C40.4255 242.355 32.6255 246.155 29.0255 240.055C29.3255 239.355 29.5255 238.555 30.0255 237.955C31.0255 236.855 32.2255 235.755 33.2255 234.555C37.4255 229.655 36.3255 224.455 30.9255 222.755C25.8255 221.055 20.4255 220.655 14.6255 221.255C7.42549 222.055 0.225483 222.455 -6.97452 222.855C-7.37452 222.955 -7.87452 221.855 -7.97452 221.255C-8.07452 220.655 -7.87452 219.655 -7.47452 219.455ZM843.326 293.755L842.725 294.355C842.925 294.422 843.126 294.522 843.326 294.655V293.755ZM81.2255 308.655C81.1255 308.655 81.0255 309.255 81.0255 309.455C81.0255 309.255 81.1255 308.755 81.2255 308.655ZM370.225 71.9551C363.325 71.6551 356.325 71.7551 349.325 71.6551L349.125 72.6551L349.926 71.8551C350.826 73.4551 351.225 76.3551 352.725 76.6551C358.725 78.0551 365.025 77.7551 371.225 75.5551C371.925 75.3551 372.825 74.1551 372.725 74.0551C372.125 73.2551 371.225 71.9551 370.225 71.9551ZM406.625 75.0551C405.725 72.5551 405.125 69.5551 400.725 70.8551C399.625 71.1551 398.925 72.4551 398.025 73.3551C398.625 73.6551 399.125 74.2551 399.825 74.3551C402.125 74.6551 404.425 74.8551 406.725 75.1551C408.525 74.2884 410.359 73.4218 412.225 72.5551C409.625 72.0551 408.525 74.2551 406.625 75.0551ZM447.426 66.8551C442.726 67.5551 440.625 70.7551 442.525 75.3551C443.325 76.0551 444.626 77.7551 446.426 78.7551C447.226 79.1551 450.125 78.4551 450.325 77.9551C451.125 75.3551 451.325 72.6551 451.725 70.0551C452.025 68.1551 449.726 66.4551 447.426 66.8551ZM462.625 68.1551C462.225 68.3551 462.025 69.2551 461.725 69.7551C462.425 69.9551 463.125 70.4551 463.625 70.2551C464.025 70.0551 464.225 69.2551 464.525 68.6551C463.825 68.4551 463.125 67.9551 462.625 68.1551ZM512.026 64.7551C510.926 64.1551 509.125 64.5551 507.625 64.5551C507.625 65.8551 507.025 67.3551 507.625 68.3551C508.525 69.7551 510.226 69.5551 511.726 68.3551C513.326 67.0551 513.726 65.5551 512.026 64.7551ZM528.226 63.3551C521.926 66.2551 516.026 70.1551 510.026 73.6551C509.826 73.7551 509.926 75.0551 510.326 75.2551C512.826 77.1551 516.226 77.0551 518.926 75.7551C524.526 73.1551 529.725 69.8551 535.125 66.8551C533.925 63.8551 531.126 61.9551 528.226 63.3551ZM661.125 62.0551C661.025 61.8551 661.026 61.7551 661.026 61.6551C660.759 61.7217 660.492 61.8217 660.226 61.9551C658.726 61.1551 657.225 60.1551 655.625 60.0551C653.925 60.0551 652.126 60.7551 650.226 61.3551C650.126 61.1551 649.926 61.0551 649.726 60.8551C649.392 60.9884 649.059 61.1217 648.726 61.2551C644.326 58.8551 639.825 59.5551 635.125 61.9551C635.125 61.7551 634.926 61.7551 634.926 61.5551C634.592 61.6884 634.259 61.7884 633.926 61.8551C628.326 59.1551 622.626 61.6551 616.926 63.3551C616.826 63.2551 616.726 63.2551 616.726 63.1551C615.859 63.3551 614.992 63.5217 614.125 63.6551C612.825 63.7551 611.425 63.8551 610.125 63.7551C607.125 63.4551 604.525 64.3551 602.125 66.0551C601.425 65.0551 601.326 63.2551 600.326 62.9551C592.526 60.3551 584.626 59.5551 577.026 65.2551C576.726 65.2551 576.626 65.2551 576.526 65.2551C575.926 64.2551 575.525 62.6551 574.625 62.4551C570.125 61.5551 565.526 62.1551 561.226 64.3551C560.226 64.8551 559.326 66.9551 559.726 67.8551C560.826 71.2551 563.626 73.2551 567.726 73.7551C570.726 70.9551 570.126 65.3551 576.526 65.2551C576.592 65.3217 576.625 65.3884 576.625 65.4551C576.725 65.3551 576.926 65.3551 577.026 65.2551C585.326 65.7551 593.625 66.7551 602.125 66.0551C606.125 65.2551 610.125 64.4551 614.125 63.6551C614.859 63.5884 615.559 63.5217 616.226 63.4551C616.426 63.4551 616.659 63.4217 616.926 63.3551C618.826 65.1551 621.326 65.5551 624.326 64.6551C627.526 63.7217 630.726 62.7884 633.926 61.8551C634.126 61.9551 634.425 62.0551 634.625 62.1551C634.825 62.0884 634.992 62.0217 635.125 61.9551C636.525 64.1551 638.825 64.7551 641.625 63.9551C644.025 63.2551 646.326 62.2551 648.726 61.2551C648.926 61.4551 649.126 61.4551 649.326 61.6551C649.659 61.5217 649.959 61.4217 650.226 61.3551C653.126 63.7551 656.526 63.4551 660.226 61.9551C660.359 62.0217 660.526 62.0884 660.726 62.1551C660.859 62.1551 660.992 62.1218 661.125 62.0551C661.125 63.4551 662.725 64.4551 663.125 63.7551C665.125 60.6551 663.225 61.0551 661.125 62.0551ZM995.526 63.6551C990.526 60.3551 984.826 58.7551 978.026 60.9551C978.426 62.1551 978.825 63.3551 979.225 64.5551C981.825 64.5551 984.026 65.2551 985.326 67.2551C982.626 67.3551 980.126 67.0551 978.826 64.9551C975.126 65.1551 971.026 66.7551 967.926 64.1551C967.926 64.1551 967.892 64.1884 967.826 64.2551C968.626 67.4551 968.625 70.9551 973.625 71.8551C977.425 72.5551 980.825 74.4551 984.725 74.7551C988.025 75.0551 990.725 72.9551 990.725 69.4551C992.125 68.6551 993.826 68.0551 994.826 67.0551C995.626 66.2551 996.026 64.0551 995.526 63.6551ZM969.926 63.0551C972.326 62.2551 974.725 61.4551 977.125 60.6551C974.225 59.2551 971.926 60.3551 969.926 63.0551ZM994.625 117.255C999.225 120.255 1004.63 120.155 1010.33 118.655C1011.63 114.855 1010.43 111.855 1007.03 109.755C1003.13 107.255 994.025 109.855 992.725 113.955C992.425 114.955 993.525 116.655 994.625 117.255ZM969.125 111.255C972.725 114.055 977.425 114.455 982.125 113.055C985.825 111.955 989.326 109.955 992.826 108.155C994.726 107.255 995.526 104.155 994.426 102.655C993.126 100.855 991.125 99.9551 988.725 100.555C984.925 101.555 981.226 103.055 974.526 105.255C974.626 105.255 971.726 106.455 969.026 107.855C968.426 108.155 967.826 109.155 967.826 109.655C967.826 110.255 968.525 110.855 969.125 111.255ZM942.125 14.5551C943.025 13.0551 942.226 12.5551 940.026 13.2551C940.026 13.7884 939.992 14.2884 939.926 14.7551C940.726 14.7551 941.925 14.8551 942.125 14.5551ZM983.926 233.755L983.125 233.855C983.125 233.855 983.426 234.455 983.426 234.555L983.926 233.755ZM909.426 13.8551C909.626 13.7551 909.826 13.7551 910.026 13.6551C910.826 14.3551 911.526 15.1551 912.526 15.6551C914.226 16.5551 916.126 17.1551 917.926 17.9551C917.626 17.3551 917.525 16.7551 917.225 16.1551C915.625 12.6551 915.526 12.5551 910.026 13.6551C909.892 13.5217 909.759 13.4217 909.625 13.3551C909.425 13.3551 909.192 13.3884 908.926 13.4551C906.926 11.7551 904.425 11.1551 901.625 12.3551C898.225 13.8551 894.925 15.6551 891.625 17.3551C892.225 12.0551 891.325 10.4551 887.125 10.5551C885.825 10.5551 884.126 11.2551 883.026 12.0551C881.326 13.2551 882.626 15.9551 885.026 16.4551C887.226 16.8551 889.525 17.0551 891.725 17.3551C893.925 16.8551 896.126 16.1551 898.326 15.6551C901.926 14.8551 905.426 14.1551 908.926 13.4551C909.126 13.5551 909.226 13.6551 909.426 13.8551ZM922.625 15.0551C921.159 15.9218 919.659 16.8217 918.125 17.7551C919.725 16.8551 921.225 15.9551 922.625 15.0551ZM957.725 239.555C959.725 239.755 960.425 238.855 959.225 237.355C958.925 236.955 957.926 236.755 957.326 236.855C956.926 236.955 956.626 237.755 956.326 238.255C956.826 238.755 957.225 239.555 957.725 239.555ZM902.026 23.2551C902.359 23.2551 902.692 23.2884 903.026 23.3551C903.426 23.5551 903.792 23.7217 904.125 23.8551C904.525 24.5217 904.892 25.1884 905.225 25.8551C905.825 25.5884 906.426 25.2884 907.026 24.9551C906.092 24.6217 905.125 24.2551 904.125 23.8551C903.925 23.3884 903.692 22.9551 903.426 22.5551C902.926 22.7551 902.526 22.9551 902.026 23.2551C893.326 21.4551 884.426 21.6551 874.026 25.0551C888.626 28.1551 892.626 27.8551 902.026 23.2551ZM931.426 274.355C932.726 274.155 934.425 272.955 935.125 271.855C935.725 270.855 935.925 268.855 935.125 268.155C933.825 266.655 931.526 264.655 929.926 265.055C927.026 265.555 924.325 267.655 921.625 269.155C921.225 269.455 921.426 270.555 921.326 271.255C923.626 274.355 927.326 275.055 931.426 274.355ZM850.526 273.755C854.026 273.055 857.426 271.755 860.826 270.655C860.926 270.755 861.025 270.855 861.125 271.055C861.259 270.988 861.392 270.888 861.526 270.755C861.826 271.355 862.026 272.055 862.526 272.155C868.426 273.455 874.626 273.455 880.926 272.555C882.426 272.255 883.825 271.255 885.225 270.455C885.925 270.055 886.826 268.955 886.826 268.955C886.026 268.055 885.225 266.855 884.125 266.655C876.225 265.055 868.726 266.955 861.526 270.755C861.459 270.688 861.392 270.588 861.326 270.455C861.192 270.522 861.026 270.588 860.826 270.655C858.126 267.255 854.425 266.455 849.725 268.655C848.625 269.155 847.326 270.855 847.426 271.855C847.526 272.655 849.526 274.055 850.526 273.755ZM765.426 89.1551C767.726 90.6551 770.826 91.5551 773.826 91.6551C780.926 91.9551 787.926 90.3551 794.826 88.0551C796.826 87.3551 799.326 88.0551 801.526 88.1551C801.626 88.1551 801.725 88.0551 801.725 88.0551C804.825 86.3551 807.726 87.3551 810.826 87.5551C814.726 87.7551 818.725 87.7551 822.625 87.3551C823.725 87.2551 824.825 85.3551 825.725 84.1551C825.925 83.8551 825.225 82.8551 824.725 82.5551C820.525 80.4551 815.726 80.2551 810.926 81.2551C806.726 82.1551 804.025 84.8551 801.725 88.0551C801.659 88.0551 801.625 88.0884 801.625 88.1551C800.625 84.1551 799.126 81.1551 794.026 79.6551C785.526 77.0551 776.826 79.8551 768.326 79.9551C765.826 79.9551 763.026 82.1551 763.326 83.8551C763.626 85.7551 763.926 88.2551 765.426 89.1551ZM759.625 271.655L760.225 271.055C760.225 271.355 760.326 271.655 760.426 271.955L760.725 270.555L760.225 271.055C759.925 270.055 759.225 269.955 758.125 270.755C758.625 271.055 759.125 271.355 759.625 271.655ZM727.125 270.855C729.125 270.555 729.626 269.355 728.526 268.255C728.126 267.855 727.025 267.555 726.625 267.755C725.525 268.355 724.625 269.155 723.625 269.955C724.825 270.255 726.025 271.055 727.125 270.855ZM696.125 272.455C698.425 272.555 700.826 272.655 703.026 272.155C704.326 271.855 705.226 270.355 706.326 269.355C705.226 268.655 704.126 267.255 702.926 267.255C698.826 267.155 695.326 269.055 694.826 270.955C695.326 271.555 695.625 272.455 696.125 272.455ZM481.125 117.155C483.225 117.855 485.325 118.855 487.525 118.855C495.225 118.955 502.925 118.555 510.625 118.355C510.692 118.488 510.759 118.588 510.826 118.655C510.959 118.522 511.092 118.422 511.226 118.355C512.626 118.255 514.026 118.155 515.426 117.855C516.226 117.755 517.426 117.355 517.426 117.155C517.526 115.455 516.326 115.055 514.526 116.055C513.326 116.755 512.326 117.555 511.226 118.355C511.159 118.355 511.092 118.355 511.026 118.355C510.892 118.355 510.759 118.355 510.625 118.355C509.325 117.055 508.526 114.855 506.826 114.455C498.826 112.055 490.425 111.455 481.625 114.455C481.025 114.655 480.325 115.355 480.025 115.955C479.925 116.255 480.625 117.055 481.125 117.155ZM369.125 123.155C371.625 124.555 375.726 123.155 376.426 120.955C376.226 120.455 376.226 119.855 375.926 119.655C373.426 118.255 369.225 119.555 368.625 121.855C368.525 122.255 368.725 122.955 369.125 123.155ZM118.325 185.755C122.225 185.455 126.025 184.755 128.625 181.455C121.225 178.155 119.725 178.055 116.825 181.355C116.125 182.255 116.425 183.955 116.525 185.155C116.525 185.455 117.625 185.855 118.325 185.755Z" fill="#FFCB14"/>
</svg>
