<svg width="1052" height="391" viewBox="0 0 1052 391" fill="none" xmlns="http://www.w3.org/2000/svg">
<path fill-rule="evenodd" clip-rule="evenodd" d="M21.5736 71.6C13.5736 63.3 12.3736 53.6 15.7736 43C16.3736 41.3 18.0736 40.5 19.6736 40.6C21.7736 40.8 23.9736 41.2999 25.7736 42.2999C29.1736 44.1999 31.5736 47.3 32.5736 51.1C33.4736 54.2 34.1736 57.4 36.6736 59.7L36.5736 59.6C36.6736 59.7 36.6736 59.7 36.6736 59.7C36.4736 59.7666 36.2403 59.7999 35.9736 59.7999C35.9736 59.5999 35.9736 59.3666 35.9736 59.1C35.1736 59.5 33.8736 59.6 33.6736 60.2C32.9736 61.7999 34.3736 62.4 35.5736 63C35.5736 62.8667 35.5736 62.7 35.5736 62.5C35.8403 62.5667 36.0736 62.6333 36.2736 62.7C38.4736 70.3999 44.0736 75.6999 49.4736 80.7999C58.6736 89.2999 68.7736 96.7999 77.9736 105.2C86.9736 113.5 97.7736 118.7 108.274 124.4C110.074 125.4 112.374 125.7 114.574 125.9C115.374 126 116.874 125.3 117.274 124.5C119.574 119.6 121.474 114.6 120.974 109C117.174 106 113.374 103 107.774 98.7999C113.074 99.0999 116.174 99.1999 119.374 100.3C121.874 101.2 124.474 102 127.074 102.5C127.774 102.6 128.974 101.5 129.374 100.7C129.674 99.7999 129.574 98.5 129.174 97.6C128.274 95.3 129.274 94.8 131.274 94.6C132.874 94.5 134.874 94.4 135.774 93.5C136.474 92.7 135.874 90.6 135.774 89.1C135.774 87.3 137.674 86 138.974 86.6C143.474 88.8 147.374 91.8 149.274 96.5C151.374 101.9 155.374 103.9 160.674 104.3C163.874 104.5 167.174 105.6 170.274 103.9C170.074 102.9 169.874 101.9 169.574 101C168.274 97.2 168.274 97 171.274 96.6C173.874 96.2 176.774 96.7999 178.774 94.2C169.174 81.1 169.174 81.2 155.674 75.1C146.674 71.1 137.874 67 130.874 59.6C127.974 56.6 123.674 54.7 120.074 52.5C117.274 50.7 114.374 49.3 111.674 47.5C111.074 47.1 110.974 45.9 110.774 45C114.574 45.2 117.674 46.6999 120.774 48.8999C123.374 50.6999 126.474 52.8999 129.774 51.2999C133.874 49.1999 129.874 45.3999 131.174 42.2999C132.674 42.5999 134.274 42.6999 135.674 43.2999C140.674 45.4999 145.474 48.1 150.474 50.1C170.674 58.2 190.874 66.0999 210.974 74.2999C219.974 78.0999 229.074 81.6 238.874 82.5C242.674 82.8 246.374 83.9999 250.074 84.7999C253.274 85.4666 256.474 86.0333 259.674 86.5C261.274 86.8 262.974 86.6999 264.574 86.7999C266.774 86.9999 268.774 85.7999 268.074 84.7999C267.474 83.9999 266.874 83 265.974 82.7C254.274 78.3999 242.474 74.2 230.674 70.1C228.674 69.4 226.574 68.7999 224.474 68.2C214.974 65.7 205.574 63.4 196.174 60.7C191.974 59.5 187.674 58.6 184.374 55.5C183.874 55 184.074 53.6 184.174 52.7C184.274 52.2999 184.974 51.7999 185.274 51.7999C191.774 52.2999 198.274 52.3 204.574 53.6C213.574 55.6 222.474 58.0999 231.174 61.2999C245.974 66.7999 261.574 69.0999 276.574 73.8999C281.074 75.3999 286.174 73.1 291.074 73.5C291.374 73.6 292.074 73.0999 292.074 72.7999C292.274 72.2999 292.174 71.4999 291.874 71.2999C289.574 69.7999 287.374 68.2999 284.874 67.2C278.374 64.5 271.374 64.5999 265.174 61.2999C253.174 54.8999 240.274 50.7 227.674 45.7C213.574 40.2 199.274 34.9 185.074 29.5C182.574 28.5 179.974 27.3999 177.874 25.7999C177.074 25.0999 177.074 23.3999 176.874 21.8999C184.174 24.5999 191.574 27 198.674 30C202.374 31.5 205.274 30.2999 208.274 28.8999C208.374 28.7999 208.574 28.7 208.774 28.6C208.774 28.4666 208.74 28.3 208.674 28.1L209.174 28.3999C210.474 29.8999 211.774 31.5999 213.374 32.3999C227.874 38.7999 242.274 45.0999 257.274 49.8999C258.874 50.2999 260.474 50.6 262.074 50.7C262.474 50.7999 263.374 50.0999 263.374 49.8999C263.274 48.8999 263.174 47.7 262.574 47.1C261.474 46 259.974 45.1 258.474 44.6C239.674 37.3 221.474 28.9 203.174 20.5C196.274 17.4 189.074 14.8999 182.074 11.7999C176.174 9.19993 170.374 6.19995 164.574 3.19995C164.074 2.89995 163.974 1.49998 163.874 0.599976C163.874 0.399976 164.874 0 165.374 0C169.274 0.1 172.674 1.89998 176.074 3.59998C178.574 4.69998 180.774 6.69995 183.274 7.19995C195.174 9.59995 205.674 15.5 216.674 20C240.774 29.9 264.174 39.4999 288.574 48.7999C303.774 54.6999 318.474 61.7999 334.874 64.2C336.974 64.5 339.074 65.3999 341.174 65.8999C344.874 66.7999 348.574 67.6999 352.374 68.2999C371.674 70.9999 391.174 73.4999 410.774 74.3999C413.474 74.4999 416.174 74.9 418.874 74.6C438.974 72.6 459.174 75.2999 479.174 73.7C482.674 73.3999 485.374 74.2999 486.574 78.3999C487.074 80.3999 489.874 80.6999 491.974 80.8999C491.874 80.9999 491.674 81.1 491.574 81.2C488.374 83.2 484.774 82.9 481.074 83C463.74 83.6 446.374 84.2332 428.974 84.8999C428.574 84.9999 427.874 85.8 427.974 86.1C428.274 87 428.674 88.4 429.274 88.5C441.074 90.3 452.974 92 464.774 93.7C466.374 94 467.974 94.2 469.674 94.1C489.174 93.4 508.774 92.8999 528.274 90.2999C534.674 89.3999 541.174 88.6 547.674 87.6C549.174 87.4 550.774 86.6999 552.074 85.8999C552.674 85.3999 552.874 84.1 552.974 83.1C553.074 82.9 552.274 82.2999 551.774 82.2C550.774 81.8999 549.674 81.6 548.574 81.6C535.574 81.9 522.474 82.5 509.474 82.5C503.474 82.6 497.574 81.7 491.674 81.2C491.807 81.1333 491.974 81.0332 492.174 80.8999C492.107 80.8999 492.04 80.8999 491.974 80.8999C494.074 79.1999 496.574 79 499.074 78.7C500.474 78.6 501.074 77.8999 500.874 76.8999C500.774 76.3999 500.274 75.9999 499.874 75.7999C498.974 75.1999 497.474 74.8 497.274 74.1C496.974 73 498.074 72.5 499.374 72.5C503.174 72.5 507.274 73.4999 510.574 72.2999C515.474 70.4999 518.774 73.7999 522.774 74.2C524.374 74.2999 526.074 74.1 527.474 73.6C529.074 73 530.374 72.7 531.974 73.6C533.774 74.7 535.974 75.8999 537.874 75.7999C547.974 75.3999 558.274 77.2999 568.374 74.7C572.074 73.7999 575.874 74.2999 579.374 75.7999L580.274 75.5C580.274 75.5 579.174 75.3999 579.074 75.3999C582.207 74.0666 585.307 72.7332 588.374 71.3999C590.374 73.9999 592.074 76.8 595.874 77C599.674 77.1 603.574 77.7 606.874 75.2C608.974 73.6 610.874 71.5999 612.974 69.7999C623.874 68.6999 634.674 66.9999 645.474 66.7999C654.374 66.5999 662.874 65.1 671.374 63.6C684.774 61.1 698.074 59.1 711.674 58C723.074 57.1 734.474 57.4 745.874 57.1C765.074 56.7 783.974 58.1 802.774 61.6C814.574 63.8 826.374 65.6999 837.974 68.7999C840.474 69.4999 843.274 69.7999 845.574 67.7999C845.174 68.7999 845.074 70.2 844.274 70.7C839.674 73.5 834.274 75.3999 829.074 73.7C818.674 70.2999 807.774 70.1999 797.074 69.3999C773.774 67.7999 750.474 68.3999 727.274 70.7C709.474 72.5 691.674 74.7 673.874 76.6C669.474 77.1 665.574 78.5 662.074 81.1C658.974 81 655.774 80.8999 652.574 80.7999C650.974 80.7999 648.974 80.4999 647.774 81.2999C640.774 86.1999 633.074 83.8 625.574 84C613.174 84.4 600.574 84 588.574 88.1C587.874 88.4 587.474 89.5999 586.874 90.3999C587.274 90.6999 587.774 91.2 588.174 91.2C602.274 91.1 616.474 91.0999 630.574 90.7999C638.674 90.5999 646.874 90 654.974 89.1C658.574 88.7 662.174 87.7999 665.074 85.2999C664.074 83.8999 663.04 82.5333 661.974 81.2C662.04 81.2 662.074 81.1666 662.074 81.1C662.207 81.1 662.307 81.1 662.374 81.1C663.374 82.4333 664.407 83.7333 665.474 85L665.274 85.3999C670.374 83.7999 675.474 82.2 680.274 80.7C682.774 81.7 684.774 82.7999 686.874 83.2C688.874 83.5 691.774 84.1 693.074 83.1C696.874 80.1 701.074 79.9999 705.474 80.2999C727.674 81.9999 749.874 79.6999 772.074 80.2999C774.174 80.3999 776.374 79.8999 778.574 79.7C791.574 78.2999 804.574 78.6999 817.574 79.8999C830.474 81.1999 843.374 82.1 856.474 80.6C863.474 79.8 870.374 79.2 877.174 77.1C880.074 76.1 883.474 76.3 886.674 76.1C887.074 76.1 887.774 76.7 887.874 77.1C888.074 77.5 887.774 78.4 887.474 78.6C884.674 80 881.774 81.3999 878.974 82.7999C877.674 83.3999 877.374 84.2999 878.074 85.3999C878.374 85.7999 878.574 86.5 878.974 86.6C882.674 87.5 886.274 88.8 890.074 89.1C899.374 89.7 908.174 92.4999 916.974 94.8999C917.474 95.0999 917.774 96.1 918.174 96.7C914.074 97.7999 910.474 96.3 906.774 96C903.574 95.7 900.274 96.1999 897.074 96.3999C897.074 96.3332 897.074 96.2666 897.074 96.2C897.007 96.2666 896.94 96.2999 896.874 96.2999C894.374 95.4999 891.974 94.5 889.374 94.2C888.074 94 886.074 94.6999 885.374 95.7999C884.774 96.5999 885.674 98.4999 885.974 100.4C889.874 98.8999 893.374 97.5999 896.874 96.2999C896.94 96.2999 897.007 96.3332 897.074 96.3999C896.774 98.8999 896.074 101.5 896.074 104.2C895.974 106.7 892.074 108.1 894.274 111.6C897.574 112.7 901.174 113.9 904.774 114.9C917.374 118.4 929.974 121.8 942.474 125.4C947.174 126.7 951.674 128.7 956.774 127C957.674 126.7 959.374 126.8 959.874 127.4C963.774 131.2 969.574 128.9 973.574 132.2C972.574 138.6 975.474 143.6 980.074 148.1C984.674 148.9 989.474 149.7 994.274 150.7C1000.77 152.1 1006.67 154.7 1011.57 159.3C1013.07 160.7 1013.57 163.4 1012.47 165.3C1011.57 166.7 1010.27 167.6 1008.37 166.8C1007.87 166.6 1007.27 166.5 1006.77 166.6C1006.37 166.7 1005.67 167.1 1005.67 167.4C1005.57 168.4 1005.37 169.7 1005.87 170.2C1006.57 170.9 1007.87 170.9 1008.87 171.4C1011.57 172.7 1012.87 174.4 1012.47 176C1012.17 177.9 1010.67 179.1 1009.17 179.3C1005.67 179.7 1003.17 180.9 1001.87 184.4C1001.37 185.7 999.474 186.5 998.074 187.3C997.174 187.8 995.774 188.4 994.974 188C989.474 185.8 984.074 183.4 978.674 181.1C975.874 175 970.174 175.2 964.874 174.7C949.074 173.2 933.374 171.6 917.674 170.3C913.874 170 909.774 169.5 906.374 170.7C901.374 172.4 896.874 171.8 891.974 171.2C887.174 170.6 882.274 170.8 877.374 170.9C871.974 171.1 866.674 172.4 861.174 171.3C858.574 170.8 856.174 173.8 856.174 176.6C856.174 177.1 856.374 177.7 856.474 178.2C857.074 179.7 858.174 181.4 856.674 182.5C855.474 183.4 853.474 183.6 851.974 183.4C845.474 182.5 839.074 181.4 832.674 180.2C826.174 179 819.774 177.6 813.274 178.4C812.674 178.5 812.174 179.9 811.974 180.7C811.874 181 812.574 181.6 812.974 181.9C815.074 183.1 818.174 181.4 819.774 184.2C813.074 186.2 805.674 185.7 799.674 190.1C798.874 190.6 797.474 190.9 796.574 190.6C791.774 188.9 786.974 190.7 782.174 190.1C780.774 189.9 781.074 189 781.774 187.6C782.874 185.4 782.274 184.4 780.974 183.9C777.674 182.7 774.474 183.2 771.374 184.1C766.974 185.4 762.774 184.9 758.574 183.3L758.174 183.7C757.774 183.4 757.274 182.8 756.874 182.8C747.674 182.1 738.474 181.8 729.374 184.2C728.274 184.5 726.174 184.5 727.274 186.9C728.874 187.2 730.474 187.7 732.074 187.9C749.374 190.3 766.474 193.6 782.974 199.4C785.674 200.4 788.274 200.1 790.974 199.5C793.374 199.1 795.374 199.9 796.674 201.7C799.174 205.1 802.374 206.5 806.574 206.5C812.474 206.4 818.474 206.7 824.474 206.5C830.474 206.3 836.474 205.4 842.374 205.3C844.974 205.2 848.374 205.7 850.074 207.3C852.574 209.9 855.174 210.7 858.574 210.9C871.074 211.8 883.574 212.7 896.074 214.1C901.074 214.6 905.574 214 910.274 212.1C916.774 209.5 923.474 207.5 929.374 203.3C932.374 201.1 936.274 200.1 939.774 198.7C946.374 196 953.474 195.2 960.174 193.3C965.874 194.7 970.874 193.6 974.774 188.9C975.074 188.6 976.874 189.1 977.574 189.7C978.674 190.7 979.574 192.1 980.674 193.5C983.474 193.1 986.174 192.4 988.874 192.6C999.274 193.3 1009.37 192.3 1019.47 189.6C1021.97 188.9 1024.87 189.7 1027.27 191.1C1027.07 191.6 1026.87 192.3 1026.57 192.4C1016.17 195.6 1005.87 198.9 995.474 201.8C992.374 202.7 988.974 202.9 985.774 202.9C982.874 202.9 980.574 203.7 978.374 205.6C976.774 206.9 975.074 208.8 973.174 209.2C966.074 211.1 960.674 215.7 954.274 218.7C953.374 220.9 952.374 222.9 951.774 224.9C950.674 228.2 948.674 230.8 945.874 232.5C942.574 234.5 939.374 236.8 935.774 237.9C925.874 240.9 916.174 244.4 905.974 246.2C904.674 246.4 903.074 247.4 902.474 244.7C906.774 242.6 911.174 240.5 915.474 238.2C917.874 237 920.374 235.8 922.274 233.9C924.974 231.1 928.274 229.5 931.474 227.4C937.374 223.6 943.374 220.2 948.674 215.3C954.074 210.2 960.174 205.2 967.974 203.5C968.874 203.4 969.474 202.1 970.174 201.3C964.774 195.7 964.674 195.5 959.874 198.5C957.474 200 955.174 201.1 952.374 201.3C943.974 201.9 936.574 205.2 930.074 210.4C926.574 213.2 922.474 214.5 918.274 215.9C913.874 217.3 913.874 217.4 916.774 222.7C917.974 224.9 916.674 227.1 914.374 227.3C912.774 227.5 911.074 227.9 909.474 227.8C901.374 227.1 893.074 227 885.074 225.5C874.774 223.5 864.574 225 854.374 225.6C853.074 225.7 852.574 226.7 852.674 228C852.774 228.5 853.074 229.1 853.474 229.3C857.474 231.8 862.374 233.2 864.774 237.9C865.274 238.8 864.274 241.4 863.074 241.9C862.074 242.3 860.674 243 860.074 242.6C854.874 238.9 848.474 240.9 842.874 239C838.774 237.6 834.274 238 830.074 239.7C828.874 240.1 827.874 242.7 828.874 243.9C829.774 245.1 831.274 245.9 832.174 247.2C832.674 247.8 832.274 249 831.974 249.9C831.874 250.2 830.874 250.6 830.574 250.4C823.074 247.2 815.674 243.9 807.774 240.4C803.074 243.3 797.974 244.7 792.474 245.3C786.574 245.9 780.674 247.3 775.474 250.5C774.074 251.4 773.574 253.3 774.674 254.7C777.074 257.7 779.774 260.2 783.574 261.4C795.174 265.1 806.874 267 818.974 264.4C819.574 264.2 820.074 263.1 820.374 262.3C820.474 262.2 819.674 261.5 819.174 261.4C812.774 260 806.374 258.8 799.974 257.5C798.874 257.2 798.574 256.2 799.174 254.9C799.374 254.4 799.774 253.9 800.174 253.8C801.674 253.3 803.274 252.7 804.774 252.7C816.274 252.8 827.574 254.5 838.874 256.1C841.574 256.4 844.474 257.3 846.974 256.7C855.674 254.7 864.374 256.8 873.074 255.7C877.274 255.1 881.774 256.2 886.074 256.6C889.374 256.9 892.274 257.8 894.174 261.1C894.874 262.3 896.774 263.1 898.274 263.5C905.574 265.6 913.074 267 920.574 264C922.874 263.1 924.974 264 926.474 265.7C929.274 268.5 932.174 268.2 935.174 266.3C931.974 262.4 928.274 259.9 922.974 259.5C919.574 259.2 915.874 259.5 911.074 256.4C920.574 257.4 928.174 258.6 935.674 256.2C937.174 255.7 938.974 255.8 940.574 256C946.674 256.5 952.474 255.1 958.274 253.7C967.874 251.4 977.274 248.3 986.974 247.1C998.274 245.8 1009.37 243.1 1020.67 241.8C1021.67 241.6 1022.87 241.1 1023.57 240.4C1024.27 239.7 1024.87 238.4 1024.67 237.6C1023.67 234.3 1021.77 231.5 1018.37 230.6C1015.27 229.7 1011.97 229.6 1008.77 229.2C1007.57 229 1006.47 226.8 1006.67 225.2C1007.07 222.4 1010.67 220.3 1012.77 221.7C1014.97 223.3 1016.87 225.3 1019.07 226.8C1020.47 227.8 1022.27 227.7 1023.57 226.5C1024.77 225.4 1025.57 224 1026.77 222.9C1028.07 221.7 1029.67 221.4 1031.17 222.5C1031.97 223.1 1032.77 224.1 1032.97 225.1C1033.27 226.6 1033.07 228.3 1033.07 229.9C1032.97 232 1032.87 234.2 1032.97 236.3C1033.07 238.8 1036.17 241.5 1038.67 241.1C1042.27 240.5 1045.97 239.4 1049.57 238.6C1049.97 238.5 1050.67 239 1050.87 239.5C1051.17 239.8 1051.17 240.5 1050.97 240.9C1049.97 243.8 1047.57 245.2 1044.97 245.8C1040.07 247 1035.57 248.4 1032.17 252.4C1030.37 254.6 1027.67 255.5 1024.87 255.6C1018.37 255.9 1011.87 256.4 1006.07 259.9C1004.27 260.9 1001.87 260.8 999.674 260.9C995.874 261.1 992.074 260.6 988.274 261.1C980.274 262.2 971.974 262.7 966.274 269.7C964.874 271.4 963.074 273.1 960.774 272.8C957.774 272.4 955.474 273.2 953.574 275.4C950.974 278.5 947.674 280.2 943.874 281.2C941.874 281.8 939.674 282.5 937.974 283.7C933.574 287.1 927.474 286.5 923.074 289.9C918.74 289.9 914.407 289.9 910.074 289.9C906.274 289.8 902.474 289.9 898.674 289.6C897.074 289.5 895.674 288.7 894.074 288.2C894.974 286.1 895.774 284.2 896.474 282.4C895.774 281.8 895.474 281.3 894.974 281.2C881.774 278.1 868.474 274.9 855.274 271.8C848.174 270.2 840.974 270.3 834.274 272.7C825.374 275.9 816.374 276.5 807.074 275.9C801.074 275.4 795.074 275.6 789.174 275.7C778.274 276.1 767.374 276.9 756.474 277.1C746.174 277.3 735.874 277 725.474 277.2C722.874 277.2 720.074 278 718.374 280.9C719.774 281.5 721.074 282.5 722.574 282.6C739.374 284.6 755.674 289.1 771.574 294.7C777.374 296.8 783.374 297.4 789.374 296.6C800.874 295.2 812.274 296.5 823.574 297.9C830.074 298.8 836.574 299.2 843.174 298.7C852.874 297.9 862.674 298.8 872.274 301.1C872.774 301.2 872.974 302.8 873.074 303.7C873.074 304.1 872.474 304.6 871.974 304.9C871.574 305.1 870.874 305.4 870.474 305.3C859.074 303.5 847.674 305.6 836.274 304.3C834.174 304.1 831.874 304.5 829.774 304.7C826.674 305 823.674 305.2 819.074 305.6C825.874 307.8 831.274 308.5 836.774 307.5C841.174 306.7 845.374 307.3 849.774 308C857.774 309.4 865.974 310 873.674 312.9C885.774 313 897.274 316.8 909.174 318C912.374 318.3 915.674 318.7 918.874 318.2C924.574 317.4 929.074 320.9 934.174 322.1C934.274 322.1 934.174 322.9 934.174 323.2C915.574 323.9 897.174 322.6 878.774 320.5C875.574 320.2 872.274 319.9 868.974 320C864.074 320.1 859.274 320.5 854.374 320.8C853.974 320.9 853.174 321.8 853.174 321.9C853.774 322.6 854.274 323.7 854.974 323.9C861.374 325.5 867.974 326.2 873.974 328.5C878.374 330.3 882.174 330.3 886.374 329C887.874 328.5 889.174 330.3 888.674 332.1C888.574 332.6 888.274 333.1 888.174 333.7C887.074 337.8 887.674 339.1 890.574 340.1C891.574 340.5 892.574 341 893.674 341.3C901.074 343.3 908.474 344.8 916.174 344.7C919.374 344.6 922.874 345 925.674 346.3C929.374 348 932.574 350.8 936.274 353.3C921.674 355.6 921.674 355.7 910.274 353.5C895.774 350.7 881.074 349.4 866.374 348.6C859.374 348.2 852.074 348.2 845.274 349.7C837.574 351.4 830.174 351.3 822.674 350.2C819.474 349.7 816.174 349 812.674 350.7C813.474 352 813.874 353.9 815.074 354.5C817.374 355.7 820.074 356.6 822.674 357C829.674 358.3 836.774 358.1 843.874 357.8C846.474 357.6 849.174 358.5 851.774 359.1C853.174 359.4 853.674 362.2 852.474 363.3C851.274 364.3 849.874 365.7 848.574 365.7C844.774 365.8 840.974 365.2 837.274 364.7C834.074 364.2 830.874 362.9 827.674 362.9C800.474 362.6 773.174 363.4 746.074 366.3C728.174 368.2 710.374 370.5 692.474 372C675.074 373.6 657.774 374.9 640.374 376.2C608.874 378.7 577.474 381.8 545.774 382.2C526.174 382.467 506.607 382.7 487.074 382.9C469.074 383.1 451.174 384.2 433.174 385.3C415.774 386.4 398.474 388.6 380.974 388.6C365.774 388.6 350.574 389.1 335.274 389.2C325.474 389.3 315.674 389.4 305.874 389.3C283.574 389 261.274 390.4 238.974 390C237.374 389.9 235.674 390 234.074 390.2C223.774 391.7 213.374 390.1 203.074 390.3C202.674 390.3 202.174 388.7 201.874 387.9C201.874 387.6 202.474 386.7 202.774 386.7C206.574 386.6 210.374 386.7 214.174 386.4C232.074 385 250.074 385.5 268.074 385.8C275.174 386 282.274 384.7 289.274 384C302.374 382.6 315.374 383 328.374 383.3C332.174 383.4 335.974 383.1 339.774 382.7C352.274 381.4 364.674 379.5 377.174 380.4C381.474 380.7 385.274 379.5 389.174 377.2C386.274 375.4 383.574 375.5 380.774 375.5C376.974 375.6 373.174 376.1 369.374 375.7C349.274 373.9 329.274 372.1 309.174 369.8C295.074 368.3 281.074 368.6 266.774 369.3C253.174 369.9 239.574 369.4 225.974 368.4C212.907 367.467 199.874 366.567 186.874 365.7C171.074 364.567 155.407 362.533 139.874 359.6C132.974 358.2 125.974 356.7 118.974 355.6C108.174 354 97.5736 351.7 87.0736 348.8C71.2736 344.5 56.1736 338.3 41.1736 331.8C40.1736 331.4 39.1736 330.7 38.5736 329.9C38.1736 329.2 38.2736 328.1 38.3736 327.3C38.3736 327 39.3736 326.5 39.6736 326.6C49.4736 330.1 59.1736 333.6 68.8736 337.2C77.5736 340.4 86.2736 343.2 95.6736 343.5C99.4736 343.7 103.274 344.8 106.974 345.5C131.474 350.6 156.074 355.6 181.074 358C190.874 358.9 200.674 359.5 210.374 359C216.374 358.7 222.274 358.8 228.274 359.4C234.174 360 240.174 360.1 246.174 360C248.174 360 249.974 358.6 249.674 355.5C243.574 353.5 237.074 352.9 230.574 352C211.174 349.5 191.774 346.6 172.674 341.8C155.774 337.5 138.774 333.7 121.674 330.2C113.074 328.4 104.974 325.3 96.8736 322.4C95.0736 321.8 94.5736 320.1 94.4736 318.5C94.1736 316.4 95.6736 315 98.3736 314.5C99.4736 314.3 100.574 314.3 101.674 314.1C101.674 314.167 101.674 314.233 101.674 314.3C101.607 314.367 101.474 314.433 101.274 314.5C101.474 314.4 101.574 314.4 101.774 314.4C102.874 318 103.674 318.6 106.374 318C106.974 317.8 107.474 316.7 107.874 316C107.974 315.8 107.474 315 107.074 314.8C105.374 313.8 103.574 313.7 101.774 314.4C105.774 312.8 109.874 312.2 114.074 313.6C120.274 315.6 126.374 317.9 132.674 319.6C149.474 324.333 166.307 328.933 183.174 333.4C186.974 334.4 190.674 333.3 193.574 330.3C193.274 329.9 193.174 329.3 192.874 329.2C182.607 325.667 172.307 322.133 161.974 318.6C140.374 311.3 118.774 303.6 97.8736 294.3C90.407 291.033 82.9736 287.7 75.5736 284.3C59.6736 277.1 43.1736 271.4 27.7736 263.1C18.1736 257.9 8.77363 252.4 0.273627 245.6C-0.226373 245.2 0.0736274 243.8 0.273627 242.9C0.373627 242.6 1.17362 242.3 1.67362 242.3C6.17362 242.8 9.87365 245.1 13.5736 247.3C20.6736 251.4 27.8736 255.3 35.0736 259C36.3736 259.7 38.1736 259.5 40.5736 259.8C39.2736 257.1 38.2736 255.3 37.4736 253.4C36.7736 252 37.8736 249.4 38.9736 249.3C42.7736 249.2 46.5736 247.9 50.1736 249.2C55.1736 251.6 59.1736 255.4 64.1736 257.8C84.7736 267.9 106.574 275 127.674 283.8C129.174 284.5 130.774 284.9 132.374 285.2C144.074 288.1 155.674 291 167.374 293.7C167.974 293.8 168.874 292.8 169.474 292.1C169.674 292 169.374 290.9 169.074 290.8C163.174 288.2 157.374 285.3 151.074 283.3C139.174 279.5 127.374 275.2 115.574 271C112.974 270.1 110.074 269.2 108.374 267.4C104.074 262.6 98.5736 260.6 92.7736 259C85.8736 257.1 80.6736 251.7 73.5736 250.3C64.0736 242.7 52.8736 238.2 42.0736 233.2C37.4736 231 33.7736 228.2 32.7736 222.6C31.9736 218.1 27.6736 215.7 24.7736 212.5C23.8736 211.5 24.0736 210.5 25.1736 210.1C25.6736 210 26.3736 209.9 26.7736 210.2C31.3736 213 35.9736 216 40.5736 218.7C43.8736 220.7 47.1736 222.6 50.6736 224C51.8736 224.4 53.7736 223.4 54.9736 222.6C55.6736 222.2 55.7736 220.5 55.5736 219.6C54.1736 213.6 52.1736 208.1 45.9736 205.3C44.5736 204.6 43.4736 203.3 42.2736 202.1C41.9736 201.8 41.7736 201.1 41.8736 200.6C41.8736 200.2 42.3736 199.7 42.6736 199.6C45.2736 199.3 47.9736 199.2 50.6736 198.9C53.1736 198.6 54.6736 196.4 53.9736 194.2C52.3736 189.5 50.3736 185.2 46.0736 182.2C42.0736 179.4 38.2736 176.3 34.3736 173.3C34.0736 173.1 33.9736 172 34.0736 171.9C34.8736 171.4 35.8736 170.7 36.5736 170.9C42.3736 172.2 48.1736 173.8 53.9736 175.1C54.7736 175.3 55.8736 174.3 56.6736 173.7C57.6736 172.8 57.6736 171.7 56.8736 170.7C50.1736 160.8 43.8736 150.6 35.6736 141.8C33.8736 139.9 32.7736 137.3 31.6736 134.9C31.3736 134.4 32.5736 133.2 33.1736 132.3C35.0736 137.4 39.2736 140.6 43.4736 143.7C44.3736 144.5 45.4736 144.1 45.9736 142.9C46.2736 142.4 46.3736 141.7 46.0736 141.3C43.0736 137 39.7736 133 34.7736 130.9C35.6736 130.4 36.5736 129.8 37.4736 129.2C39.7736 127.6 40.2736 125.6 38.8736 124C36.3736 121.1 33.6736 118.4 31.4736 115.3C29.3736 112.3 27.6736 108.8 26.0736 105.4C25.6736 104.4 26.8736 104.1 28.0736 104C33.6736 103.4 34.3736 101.7 31.2736 97C30.1736 95.3 28.2736 94 28.8736 91.6C29.607 91.1333 30.3736 90.6333 31.1736 90.1C30.507 89.5 29.8736 88.8999 29.2736 88.2999C29.0736 86.4999 27.9736 85.3 26.4736 84.6C26.7736 80.8 26.4736 77.1 23.6736 74C22.9736 73.2 22.3736 72.3 21.5736 71.6ZM964.874 156C964.874 156.5 964.874 157.1 965.074 157.5C966.674 160.5 969.474 162.2 972.674 162.9C979.174 164.3 985.474 162.7 991.874 161.8C992.674 161.7 993.274 159.7 993.974 158.3C994.174 158.3 994.374 158.3 994.574 158.3C994.774 158.367 994.974 158.433 995.174 158.5C995.574 158.7 995.974 158.933 996.374 159.2C996.274 159 996.174 158.7 995.974 158.6C995.774 158.6 995.474 158.5 995.174 158.5C994.84 158.3 994.507 158.1 994.174 157.9C994.107 158.033 994.04 158.167 993.974 158.3C992.374 158.3 990.774 158.7 989.774 158.1C983.074 153.9 975.674 154 968.274 153.5C967.774 153.5 967.174 153.8 966.674 153.8C965.474 153.9 964.874 154.6 964.874 156ZM954.874 147.9C956.274 148.6 957.974 148.8 959.174 149.1C960.574 149 961.874 149.2 962.674 148.7C963.374 148.3 964.174 147.1 964.174 146.2C964.074 145.4 963.074 144 962.374 144C959.774 143.9 957.074 144.3 954.474 144.6C954.074 144.6 953.274 145.4 953.374 145.6C953.774 146.5 954.174 147.6 954.874 147.9ZM957.674 138.3C958.974 138.1 959.474 137.1 958.974 136.2C958.774 135.8 958.274 135.3 957.874 135.2C955.174 134.6 952.574 134.4 950.174 136.3C952.274 138.6 954.974 138.6 957.674 138.3ZM935.974 146.3C938.074 147.6 940.174 149.7 943.074 148.7C943.874 148.4 944.574 147.5 945.174 146.7C945.874 145.6 945.474 144.7 944.174 144.2C943.174 143.9 942.174 143.6 940.874 143.2C939.674 143.3 938.074 143.3 936.474 143.3C935.974 143.4 935.074 143.8 935.174 143.9C935.274 144.7 935.374 145.9 935.974 146.3ZM928.374 131.2L928.774 130.3L927.874 130.4L928.374 131.2ZM903.674 134.2C903.874 134.2 904.074 133.5 904.274 133.1C903.874 132.9 903.44 132.733 902.974 132.6C902.84 132.933 902.674 133.3 902.474 133.7C902.874 133.9 903.374 134.3 903.674 134.2ZM878.974 217.7C878.274 216.7 877.974 215.6 877.474 215.5C874.874 215 872.174 214.6 869.474 214.4C867.874 214.3 865.974 214 864.774 214.7C860.074 217.6 855.174 217.8 849.874 216.6C859.474 219.1 868.974 219 878.974 217.7ZM835.074 223.3C835.474 223.2 836.074 222.6 836.074 222.2C836.074 221.8 835.674 221.1 835.274 220.9C833.374 219.8 831.274 219.5 829.174 220.1C828.774 220.3 828.474 220.9 828.174 221.3C828.474 223 831.874 224.1 835.074 223.3ZM1013.37 252.7L1012.87 251.8L1012.57 252.7H1013.37ZM755.174 245C754.274 244.8 753.374 244.7 752.474 244.6C752.374 244.9 752.274 245.6 752.374 245.6C753.307 245.733 754.207 245.833 755.074 245.9C755.174 245.6 755.274 245 755.174 245ZM766.474 244.3C768.374 245.4 770.374 245.8 772.374 244.9C773.174 244.6 774.274 243.3 774.074 242.7C773.774 241.5 772.774 240.4 772.274 239.6C769.474 239.4 767.674 240.3 766.174 241.8C765.174 242.9 765.274 243.6 766.474 244.3ZM726.574 269.8C727.574 269.8 728.674 269.9 729.774 269.8C735.074 269.4 740.374 268.9 745.774 268.3C749.974 267.9 754.174 267.2 760.074 266.4C753.374 260.6 747.774 258.7 740.874 260.8C735.774 262.3 730.474 263.1 725.274 264.5C723.974 264.8 722.674 266.2 721.774 267.4C720.874 268.4 723.474 269.7 726.574 269.8ZM816.474 337C833.674 338.5 850.974 336.5 870.974 338.7C867.574 336.2 866.874 335.4 865.874 335.1C851.974 330.4 837.874 327.2 822.974 328.4C812.174 329.2 801.474 330 790.874 332.5C790.074 332.7 789.174 333.8 788.874 334.7C788.774 335.2 789.874 336.4 790.574 336.6C792.074 337.1 793.774 337.3 795.374 337.3C798.574 337.4 801.874 337.2 805.074 337.1C808.874 337 812.674 336.7 816.474 337ZM777.874 358.2C778.274 358.4 778.874 358.4 780.374 358.6C785.374 358.3 791.374 357.9 797.274 357.4C798.674 357.3 799.474 356.5 799.074 355.3C798.774 354.4 798.174 353.6 797.474 352.8C797.174 352.5 796.474 352.3 795.974 352.2C789.474 351.6 782.974 351.7 776.974 355C776.574 355.3 775.974 356.1 776.174 356.3C776.574 357 777.174 357.6 777.874 358.2ZM756.374 325.8C757.974 326.2 759.574 326.8 761.074 326.5C766.274 325.6 771.274 323.9 776.674 323.9C777.774 323.9 778.974 322.1 780.174 321C780.24 321 780.307 321 780.374 321C781.274 321.4 782.274 322.1 783.074 321.9C784.074 321.6 783.574 321.1 781.974 321.4C781.474 321.5 780.974 321.1 780.474 321C780.474 321 780.44 321 780.374 321C780.307 321 780.24 320.967 780.174 320.9C780.174 320.967 780.174 321 780.174 321C774.874 322.1 769.774 322.1 764.474 321.6C761.974 321.4 759.274 322.1 756.674 322.7C756.074 322.9 755.674 324 755.274 324.8C755.174 325 755.974 325.7 756.374 325.8ZM839.874 86C839.474 85.8 838.874 85.7999 838.374 85.7C835.874 85.5 833.874 86.4 834.674 87.1C835.474 87.7 836.574 87.8999 837.474 88.2999C838.074 88.3999 838.574 88.4999 839.074 88.3999C840.174 88.1999 841.174 87.9 842.174 87.6C841.374 87.1 840.674 86.4 839.874 86ZM891.474 117.6C892.874 117.5 893.574 116.9 893.174 116.1C892.974 115.7 892.274 115.4 891.874 115.3C890.774 115 889.774 114.8 888.674 114.6C887.807 115.067 886.907 115.5 885.974 115.9C886.774 116.5 887.474 117.4 888.274 117.6C889.274 117.9 890.374 117.7 891.474 117.6ZM872.874 123.2C876.974 121.5 881.174 123.7 885.274 123.1C885.574 123.1 886.174 122.5 886.174 122.4C885.974 122 885.674 121.3 885.274 121.3C881.174 120.8 876.974 120.4 873.274 123L871.974 122.7L872.874 123.2ZM855.174 100.8C855.674 101 856.174 101.2 856.674 101.3C864.974 102.4 872.574 100.3 879.574 96C880.274 95.5 880.774 94.1 880.674 93.2C880.574 92.3999 879.874 91.2999 879.174 90.8999C877.774 90.0999 876.174 89.8 875.774 89.6C867.974 87.9 861.874 90 856.074 93C854.874 93.6 854.174 95.4999 853.474 96.7999C852.874 97.8999 854.074 100.6 855.174 100.8ZM845.074 121.9C845.574 122 846.274 122 846.474 121.7C846.974 120.8 846.474 120.3 845.074 120.5C844.674 120.6 844.374 121 844.074 121.2C844.374 121.5 844.674 121.9 845.074 121.9ZM816.574 99.2999C823.474 100.1 830.374 101.1 837.374 101.7C841.474 102 844.674 100.1 846.174 96.1C846.374 95.4 845.874 93.7 845.374 93.5C833.374 90.1 821.274 87.9999 808.774 89.2999C805.674 89.5999 802.474 89.8 799.274 90C796.874 90.2 795.374 91.8 794.174 93.5C793.774 94.1 793.974 95.8999 794.374 96.2C795.774 96.8999 797.374 97.4 798.974 97.6C804.774 98.2 810.674 98.7 816.574 99.2C816.574 99.2666 816.574 99.2999 816.574 99.2999ZM738.974 102.9C744.274 103.4 749.474 103.7 754.774 104.1C754.774 104.033 754.774 104 754.774 104C749.374 101.7 743.874 100.2 737.774 100.8C738.174 101.6 738.574 102.9 738.974 102.9ZM762.174 103.8C764.374 105.2 766.374 106.9 768.474 108.4C761.974 107.8 755.574 107.8 749.174 113C761.674 116.8 772.874 118.2 784.174 118.5C792.974 118.7 801.374 116.9 809.574 114.1C811.674 113.4 813.174 111.7 813.874 109.6C814.374 108.3 814.074 107.1 812.774 107.1C804.674 106.7 796.574 106.3 788.974 109.9C786.874 110.8 784.774 110.9 782.674 110C778.074 108.1 773.274 108.1 768.474 108.6C768.874 107 769.174 105.6 769.574 104.2C770.174 102.4 769.774 100.6 768.474 100.5C765.874 100.2 763.274 100.2 760.674 99.8999C757.474 99.4999 756.274 101.7 754.974 103.9C757.474 102.3 759.874 102.4 762.174 103.8ZM754.974 103.9C754.907 103.967 754.84 104 754.774 104C754.774 104.067 754.774 104.1 754.774 104.1C754.84 104.033 754.907 104 754.974 104C754.974 103.933 754.974 103.9 754.974 103.9ZM692.974 303.4C693.674 304.1 694.674 305.1 695.474 305C700.674 304.333 705.84 303.467 710.974 302.4C711.774 302.3 712.274 300.9 712.874 300.1C711.974 299.6 711.174 299.1 710.174 298.5C704.974 298.3 699.674 297.5 694.574 299.9C693.074 300.6 691.974 302.4 692.974 303.4ZM695.974 258.6C701.674 259 707.474 258.9 713.074 257.6C713.374 257.5 713.974 256.8 713.874 256.5C713.674 256.1 713.174 255.6 712.674 255.5C711.174 255.1 709.574 254.8 708.374 254.5C703.874 254.7 699.474 253.1 695.774 256.1C695.374 256.5 694.974 257 694.974 257.5C694.974 257.9 695.574 258.6 695.974 258.6ZM703.074 93.1C712.774 93 722.474 93 732.174 92.5C740.874 92 749.474 91 758.374 90.2C760.874 92.2 762.374 93.0999 763.374 94.2999C767.374 98.5999 772.074 98.0999 776.874 96.2999C777.774 95.8999 778.574 93.3999 778.274 92.2C777.674 90.1 775.774 88.3 773.574 88.1C764.974 87.3 756.474 85.7 747.674 86.2C736.374 86.7999 724.974 86 713.674 87.6C709.974 88.2 706.174 88.8999 702.474 89.7C702.174 89.7999 701.574 90.5999 701.674 90.8999C701.974 91.6999 702.574 93.1 703.074 93.1ZM666.374 304.6V303.5L665.074 304L666.374 304.6ZM313.374 67.1C311.907 66.7666 310.44 66.5667 308.974 66.5C308.574 66.5 308.174 67.0999 307.774 67.3999C307.274 68.4999 309.474 69.8999 312.274 69.7C312.974 69.7 313.674 68.7 314.274 68.2C313.974 67.7999 313.774 67.2 313.374 67.1ZM325.374 70.1L325.874 71.1L326.374 70.1H325.374ZM365.474 88C367.474 90.4 369.374 92.6999 371.374 94.8999C372.574 96.0999 374.474 96.3999 375.874 95.2C376.974 94.2999 377.474 92.3999 379.374 92.3999C384.674 92.5999 390.074 92.2999 394.574 96.2999C395.474 97.0999 398.374 97.2 398.974 96.5C401.074 93.9 404.974 95.1999 406.774 92.2999C394.674 88.8999 386.374 88.1 365.474 88ZM646.874 95.3999C646.274 95.4999 645.674 95.1999 645.274 95.3999C639.474 97.6999 633.574 97.2 627.574 97C615.674 96.6 603.774 96.8999 591.874 98.2C583.274 99.1 574.574 98.8 565.974 99.6C554.074 100.7 542.174 101.5 530.274 100.4C529.14 100.267 528.04 100.233 526.974 100.3C521.074 100.5 515.174 100.7 506.074 101C514.674 103.9 520.174 104.3 525.474 103.3C532.074 101.9 538.374 102.8 544.774 103.7C552.374 104.6 559.974 104.9 567.474 105.3C573.474 105.6 579.374 105.8 585.374 105.7C599.474 105.5 613.574 106.1 627.474 103C633.874 101.6 640.374 101.4 646.874 102.2C648.474 102.4 650.174 101.8 650.674 100C651.174 98.5 648.374 95.3999 646.874 95.3999ZM660.774 98.7C660.574 98.7 660.174 99.3999 660.274 99.7C660.474 100.1 660.874 100.7 661.274 100.8C663.874 101.5 666.374 101.8 668.974 100.5C666.674 97.6 663.774 98 660.774 98.7ZM455.074 375.3C455.874 375.2 456.774 375.1 457.674 375C457.874 375.133 458.074 375.233 458.274 375.3C458.34 375.167 458.407 375.033 458.474 374.9C482.274 375.1 505.974 374.1 529.674 373.9C551.974 373.8 574.174 371.5 596.374 369.8C605.574 369.067 614.74 368.233 623.874 367.3C629.774 366.7 635.674 365.8 641.674 365C642.074 362.2 639.874 362.9 638.974 362.7C636.274 362.3 633.474 361.9 630.874 362.1C622.674 362.9 614.574 362.1 606.474 361.3C605.374 361.2 604.274 361 603.174 361.1C587.474 362.1 571.674 361.2 555.974 360.5C541.274 359.9 526.774 360.7 512.274 363.4C499.974 365.6 487.474 366.7 475.174 368.6C469.874 369.5 464.674 371.1 459.474 372.6C458.974 372.8 458.774 374 458.474 374.9C458.274 374.9 458.107 374.9 457.974 374.9C457.84 374.9 457.74 374.933 457.674 375C457.074 374.6 456.374 374.2 455.774 374C455.374 373.8 454.674 373.8 454.374 374C453.074 374.9 453.374 375.4 455.074 375.3ZM406.874 369.2C403.974 367.7 400.974 366.8 397.874 368.7C400.774 370.3 403.774 371 406.874 369.2ZM376.874 369.5C378.274 369.567 379.64 369.667 380.974 369.8C379.64 369.6 378.274 369.433 376.874 369.3C376.874 369.367 376.874 369.433 376.874 369.5ZM324.674 344.4C339.274 346.9 353.974 347.8 368.674 346.5C380.674 345.4 392.574 346.1 404.574 345C424.074 343.2 443.674 344.3 463.274 342.5C467.574 342.1 471.974 342.8 476.274 343.1C482.874 343.6 489.374 343.3 495.674 341.8C496.074 341.2 496.674 340.6 496.574 340.3C496.174 339.5 495.674 338.4 494.974 338.2C493.474 337.6 491.774 337.4 490.174 337.4C470.574 338.3 450.974 340.1 431.474 339.9C412.874 339.7 394.374 340.8 375.874 340.9C358.974 341 342.074 341.4 325.274 341.8C324.574 341.8 323.974 343 323.274 343.6C323.774 343.9 324.174 344.4 324.674 344.4ZM444.874 130C444.574 129.3 444.174 128.1 443.574 127.9C442.074 127.6 440.474 127.4 438.974 127.6C438.174 127.7 437.474 128.6 436.674 129.1C437.574 129.6 438.274 130.3 439.174 130.8C439.574 131 440.174 130.9 441.074 131C441.674 131 442.774 131.1 443.774 130.9C444.174 130.8 444.874 130.2 444.874 130ZM370.174 122.2C373.274 122.9 376.474 123.5 379.674 124.1C388.774 125.8 397.974 126.2 407.274 125.7C416.474 125.2 425.674 125.1 434.874 125.2C440.774 125.3 446.674 126.3 452.474 123.7C454.774 122.7 457.774 123.4 460.474 123.3C473.474 122.7 486.474 122.2 499.474 121.5C500.274 121.5 501.074 120.3 501.874 119.7C501.174 119 500.474 117.8 499.674 117.8C492.174 117.1 484.674 114.5 477.274 117.7C469.674 117.1 462.074 116.7 454.574 116C450.574 115.6 447.974 112.6 445.274 110C445.34 110 445.407 110 445.474 110C455.074 113.8 465.074 115.3 475.374 114.6C477.474 114.5 479.774 114 481.874 114.3C494.274 116.1 506.674 113.6 519.074 114C520.14 114.067 521.207 114.067 522.274 114C523.974 113.8 525.574 113.5 527.174 113.3C531.174 112.8 535.174 112.3 540.174 111.6C538.074 110.9 537.074 110.3 536.074 110.2C531.774 109.8 527.474 109.5 523.074 109.4C505.874 108.9 488.574 108.1 471.274 110.3C462.774 111.3 454.074 110.2 445.474 110C445.407 109.933 445.307 109.867 445.174 109.8C445.24 109.867 445.274 109.933 445.274 110C442.574 112.3 439.374 112.3 436.074 112.1C432.774 111.9 429.574 111.9 426.374 111.8C421.174 116.3 415.174 114.2 409.274 113.7C388.774 112 368.174 111 347.674 114.1C346.774 114.2 345.874 115 344.574 115.8C353.374 118 361.774 120.1 370.174 122.2ZM353.974 93.1C346.274 88.7 345.574 88.6999 328.374 89.8999C342.674 94.6999 346.174 95.2 353.974 93.1ZM301.074 114.5C301.474 114.6 301.974 114.2 302.374 114C301.974 113.3 301.674 112.2 301.174 112.2C299.874 112 298.574 112.3 295.174 112.6C298.474 113.7 299.774 114.1 301.074 114.5ZM328.574 107.5C331.774 107.3 334.974 106.5 338.574 105.9C334.874 103.3 334.774 103.4 326.974 102.6C322.174 102 317.374 101.1 312.474 100.3C308.174 99.4999 303.874 98.9 299.674 98C294.874 97.1 289.974 96.5 285.274 95C281.074 93.6 276.974 94.7999 270.474 94.7999C290.174 104.2 308.474 108.7 328.574 107.5ZM265.474 124.6C265.774 124.6 266.174 124.2 266.574 124C266.174 123.8 265.774 123.4 265.374 123.4C264.974 123.4 264.574 123.8 264.274 124C264.674 124.3 265.074 124.6 265.474 124.6ZM255.574 121.4C255.874 121.3 256.074 120.6 256.274 120.1C255.874 119.9 255.274 119.5 254.874 119.6C254.574 119.6 254.474 120.4 254.274 120.8C254.674 121 255.274 121.5 255.574 121.4ZM256.774 90.5L256.674 89.5L255.674 90.1L256.774 90.5ZM157.174 108.7C156.674 108.6 156.174 108.9 155.674 109.1C155.274 109.3 154.474 109.7 154.574 110C154.574 111 154.674 112.5 155.174 112.7C158.574 114.2 162.074 115.7 165.674 116.7C172.874 118.9 180.174 120.8 187.474 122.8C189.974 123.4 192.674 123.9 195.274 122.7C194.874 120.3 193.374 118.6 191.374 117.8C180.274 113.8 168.774 110.9 157.174 108.7ZM195.674 93.1C195.474 93.4 194.974 93.6999 195.074 93.8999C195.174 94.2999 195.474 94.7 195.774 95.1C195.674 95.2 195.474 95.4 195.274 95.6C195.54 95.5333 195.774 95.4666 195.974 95.3999C196.474 95.9999 197.074 96.7 197.774 97.2C197.974 97.3999 198.974 97.3 199.074 97C199.574 96 199.174 94.9999 197.974 94.8999C197.374 94.8999 196.674 95.0999 195.974 95.3999C195.907 95.3332 195.874 95.2666 195.874 95.2C195.807 95.1333 195.774 95.1 195.774 95.1C196.307 94.3666 196.274 93.7 195.674 93.1ZM192.174 106.4C190.274 104.1 187.774 103.7 185.074 104.6C184.774 104.6 184.774 105.2 184.574 105.6C185.774 108.3 187.974 109.6 190.874 109.5C191.374 109.5 192.174 109.2 192.274 109C192.374 108.1 192.574 106.9 192.174 106.4ZM226.274 89.2C224.54 89.0666 222.774 88.9666 220.974 88.8999C219.974 87.5999 219.174 86 217.974 85.2C216.174 84.1 213.974 83.6 211.974 82.7C197.174 75.7999 167.174 63.4999 159.674 61.2999C159.274 61.1999 158.674 61.5 158.274 61.7C157.374 62.2 157.374 63.2 158.474 64.1C159.674 65.2 160.774 66.5 162.174 67.2C179.674 75.6 197.374 83.4 216.574 87.1C218.174 87.4 219.574 88.3 221.074 89C222.807 89.2 224.54 89.4 226.274 89.6C226.274 89.4666 226.274 89.3333 226.274 89.2ZM219.774 137.9C213.074 135.7 206.474 132.9 199.674 131.7C190.174 130 180.374 129.6 170.274 128.5C170.874 129.6 171.074 130.6 171.574 130.7C201.874 138.8 207.774 139.8 220.674 139.2C220.374 138.7 220.174 138 219.774 137.9ZM236.274 116.6C235.374 116.4 234.474 116.5 233.574 116.6C233.474 116.6 233.374 117.4 233.374 117.5C234.174 117.8 235.074 118.1 235.974 118.2C236.274 118.3 236.674 117.8 237.074 117.5C236.774 117.2 236.574 116.6 236.274 116.6ZM217.474 327.6C218.174 327.7 218.974 326.9 219.774 326.5C219.374 326.1 219.074 325.5 218.674 325.5C216.174 325.1 213.674 324.8 210.574 324.5C212.574 327.4 215.174 327.3 217.474 327.6ZM214.174 176.1C218.374 176.8 222.674 177.1 228.674 177.8C226.674 176.1 226.074 175.1 225.174 174.8C215.774 172.3 206.374 169.6 196.874 167.5C190.474 166.1 184.274 165.1 178.874 160.7C175.474 158 170.874 157.5 166.474 157.8C165.074 157.9 163.874 159.8 164.474 161.2C165.474 163.9 166.974 166.2 169.674 167.2C173.674 168.6 177.874 169.9 182.074 170.7C192.774 172.7 203.474 174.4 214.174 176.1ZM138.274 219.5C145.274 223.7 152.174 228 159.174 232C161.474 233.3 164.374 233.7 166.974 234.5C169.774 234 172.374 233.6 174.974 232.9C175.774 232.7 176.674 231.5 176.874 230.7C177.074 229.8 176.674 228.5 176.074 227.8C175.374 227 174.274 226.7 173.174 226.4C162.374 222.8 151.474 219.3 140.574 216C139.674 215.7 138.274 216 137.674 216.6C136.774 217.5 137.174 218.8 138.274 219.5ZM148.374 124C150.574 126.1 152.674 126 155.174 123.7C155.774 123.2 155.974 122.1 156.074 121.2C156.174 120.9 155.474 120.3 154.974 120.2C152.074 119.3 149.174 117.9 145.974 120.2C146.774 121.5 147.374 123 148.374 124ZM72.5736 178C73.1736 178.5 74.4736 178.7 75.3736 178.6C75.907 178.533 76.4736 178.467 77.0736 178.4C77.4736 178.8 77.9736 179.133 78.5736 179.4C78.5736 179.6 78.5736 179.7 78.6736 180C78.807 179.867 78.9403 179.7 79.0736 179.5C79.2736 179.6 79.4736 179.7 79.6736 179.7C79.5736 179.5 79.4736 179.5 79.2736 179.4C79.407 179.267 79.507 179.167 79.5736 179.1C78.7736 178.4 77.9736 178.3 77.0736 178.4C75.9736 177.4 75.2736 175.9 74.2736 174.9C73.8736 174.6 73.2736 174.4 72.7736 174.5C72.4736 174.6 71.8736 175.1 71.9736 175.4C71.9736 176.3 71.9736 177.5 72.5736 178ZM47.5736 109.4C49.3736 111.4 52.2736 112.8 53.2736 115.1C56.7736 124 65.6736 126.6 72.0736 132.1C72.8736 132.7 74.0736 132.9 75.0736 133.1C77.2736 133.6 79.3736 133.6 81.2736 132.2C82.8736 131 83.0736 126.8 81.3736 124.8C77.4736 120.3 73.9736 115.2 69.2736 111.8C63.5736 107.7 58.8736 102.6 53.8736 97.7C52.2736 96.2999 50.5736 94.8999 48.7736 93.7999C47.4736 92.8999 45.8736 92.4999 44.1736 91.8999C42.3736 93.8999 40.6403 95.8999 38.9736 97.8999C40.3736 103 44.3736 105.9 47.5736 109.4Z" fill="#161616"/>
</svg>
