<svg width="1146" height="432" fill="none" xmlns="http://www.w3.org/2000/svg"><path d="M52.626 225.625v.201c-.1 0 0-.201 0-.201zM868.125 334.226c-2.7 1.3-5.399 2.6-8.199 3.8-.6.3-1.601.3-2.201.1-.5-.1-.9-.8-1-1.3-.1-.5.1-1.2.5-1.6 3.6-3 7.3-.1 10.9-1.1.1 0 0 .1 0 .1z" fill="#EA3F3F"/><path fill-rule="evenodd" clip-rule="evenodd" d="M.525 248.826c2.1-.8 4.3-1.8 6.6-2.1 13.6-1.6 27.2-2.8 40.8-4.7 6.3-.8 12.6-2.8 18.9-4.3.5-.1 1-1.1 1.1-1.7.1-.6-.1-1.7-.6-1.8-3-.6-6.1-1.2-9.2-1.4-5.2-.3-5.8-3.3-5.5-7 15-3.9 30.2-5.4 45.5-6.9 3.9-.3 7.9-1.5 11.8-2.4.7-.2 1.5-1.1 1.6-1.6.1-.5-.6-1.5-1.2-1.6-6.1-.9-12.2-2.5-18.5-2.4-15.5.2-29.7-3.9-44.8-4.9-1.1-.1-2.6-1.8-2.7-2.9-.1-1 1.3-2.7 2.4-3.3 4.4-2.1 9.1-3.8 11.7-8 .4-.6 1.1-1.7.9-2-.9-.8-2-1.7-3.2-1.9-1.5-.2-3.3.6-4.8.3-1-.2-2.6-1.5-2.5-2.2.2-1.3 1.4-2.6 2.4-3.8.5-.5 1.4-.9 2.1-1.1 8.8-1.7 17.6-3.9 26.5-4.8 16.9-1.8 33.7-2.6 50.2-9 6.7-2.6 14.4-3.9 21.5-4 14.6-.3 29.1-3.2 43.6-4.3 10.7-.7 21-2.7 31.3-5.3 13.5-3.5 27.1-6.1 40.8-7.6 26.601-2.8 53.3-5.2 79.9-7.6 13.7-1.3 27.4-1.7 41.1-2.8 39.5-3.2 79.2-6.6 118.6-6.5 31.3.1 62.701-2 94.001-2.8 33.9-.8 67.7-2.1 101.6-3.2 13.7-.4 27.4-.8 41.1-1.4 4-.2 8-1.2 12-1.9 2.2-.4 4.2-2.8 3.5-4.9-.3-1.2-1.201-2.8-2.301-3.1-2.9-.6-6.299-.2-9.199-.9-13.8-3.2-27.8-3.8-42.7-1.9-14.401 1.8-28.9 1.3-43.4 1.6-8 .2-16-.4-24-.2-24.1.4-48.301 1.7-72.4 2-19.2.2-38.7 1.2-58.001 2.7-13.7 1.1-27.3 2.2-41 2.1-13.6-.1-27.3.4-41 1.2-7.2.4-14.5 2.6-21.7 2.9-26.6.9-53.299 4.2-79.899 6.8-21.9 2.2-43.701 4.1-65.401 8.4-12.2 2.4-24.1.8-36.1 1-3.5.1-6.8-2.4-11.2-2-21 2.1-42 4.1-63 5.9-3.2.3-6.4.2-9.6 0-.6 0-1.8-.8-1.7-1.1.4-1 1-2.7 1.8-3 4.7-1.5 9.4-3.5 14.1-4 18.6-1.8 37-6.5 55.7-6.5 2.4 0 5 0 7.2-.9 10.2-4.4 20.801-4.1 31.201-5.1 14.4-1.3 28.799-3.3 43.099-6v.3c.267-.134.567-.267.901-.4 6.799-.2 13.5-3.2 20.5-1.8 4.7 1 9.199-1.5 13.699-3.2 3.1-1.3 6.1-1.5 8.9-.2 0-.1.1-.2.1-.3 1.8.5 3.7.8 2.4-1.9-.3-.6-2.1.5-2.4 1.9a.88.88 0 00-.4-.1c-9.799-4.5-20-4.8-30.799.2l-12 5.4c-.201.066-.401.1-.601.1h-.3c.2-2-.099-4.1-2.8-4.2-7.899-.4-15.899-.1-24 2.5-3.799 1.3-7.799 2-11.799 2.4a7767.868 7767.868 0 01-67.601 6.7c-6.4.7-12.8.9-19.4 1.4.3-1 .3-1.9.8-2.3 1.3-.9 2.9-1.5 4.2-2.4.7-.4 1.5-1.6 1.4-1.7-.8-.9-1.9-2.4-2.9-2.3-5.6.5-11.3 1.3-16.9 2.1-4 .6-8.1 2-11.9 1.8-12-.7-24.1 0-36.1.5-5.9.3-10.9-1.3-15.8-3.4-.6-.3-1.5-1.3-1.4-1.5.8-1.1 1.8-2 2.9-2.9.5-.5 1.5-.9 2.2-.9 17.7-.4 35.3-4.9 53-4.7 4.8 0 9.7-.8 14.5-1.4 7.3-.8 14.5-2.1 21.7-2.7 24.3-1.8 48.5-3.4 72.7-5.3 4.8-.4 9.7-1 14.5-2.2 16.1-3.8 32.301-3.8 48.101-3.6 16.1.2 32.099-.8 48.199-2.4 6.4-.6 13 .2 19-1.4 7.4-2.1 14.5-1.4 21.7-1.9 7.2-.5 14.4.7 21.601 0 22.6-2.2 45.1-2.7 67.5-2 11.9.4 24-.8 36.1-1.5 12-.6 24-1.9 36-2.3 29-1 58-4 87.099-6.8 15.3-1.4 30.501-1.9 45.801-2 23.3-.2 46.699-1.5 70.1-2.3 8.099-.3 15.7-1.8 23.5-5.5 8.3-4 17.099-3.8 24.699.9 1.8 1.1 3.801 2.6 5.9 2.8 11.8 1 23.701 3.1 34.801-5.5 1.5-1.2 4.8-.4 7-1.2 3.7-1.3 4.6-3.9 2.9-7.5-6.7-.2-13.9-.1-21-.7-7.9-.6-15.701-2.1-23.201 3.5-.9.7-3.199.5-4.599.1-4.3-1.3-9.101-2-11.901-5.6l-.299.5a6.643 6.643 0 01-.701-.4c.267 0 .534-.034.801-.1 1.5-5.7-.4-9.9-6.4-12.4l-9-3.9c8.4-2.5 16.7-3.7 25.3-2.3 3.7.6 7.899-.2 11.799-.3 13.701-.2 27.3-.3 41-.6 30.5-.5 60.8 1.2 91.5-.6 4.8-.3 9.4.7 14.1 1.2 1.9.2 3.3 3.5 2 5.2-.8 1.1-2.299 1.9-3.399 2.9-2.4 2.2-2 6.2.7 6.5 5.5.5 11 .6 16.5 1.3 2.2.2 4.9 1.2 6 2.6 3.3 4.5 6.404 9.3 5.404 15.3-.2 1-1.804 2.7-3.004 2.9-5.7 1.2-11.001.6-15.701-2.4-5.5-3.5-11.1-7-17.1-10-1.599-.8-4.599-.3-6.799.2-1.5.3-2.601 1.9-4.101 2.5-7.8 3.3-12.399 9.8-18.299 14.9-.8.7-.9 2.7-.4 3.7.599 1 2.3 2.1 3.5 2.1 8.9-.1 17.699-.1 26.599-.8 21.1-1.8 41.705-1.5 61.705 2.9 5 1.1 9.5-.9 13-5.4 5.1 1.1 10.4 2.3 16.1 3.5.2-3.9.3-7.2.5-10.4 4.6-2.4 8.9-4.6 12.4-6.4 7.9.6 15 1.1 22.1 1.8 2.2.3 4.5 1 6.4 2 1.1.6 2.1 2.1 2 3.3 0 1-1.4 2.7-2.6 3.1-2.9 1-6.7.5-8.2 3.8-2.8 5.8-7.4 4.3-11.9 3.6-3.3 1.8-3.5 4.8-4.7 7.3-1.9 4-3.3 8.2-5.3 12.2-1.1 2.2-3.6 2.8-6 1.9-3.3-1.3-6-1.1-7.8 2.5-1.9 3.8-4.8 5.7-9.6 4.6-1.3-.3-3 .3-4.8.5-3.4 4.1-7.1 8.1-10.1 12.5-1.1 1.6-1.2 4.3-.4 6 1.1 2.4 3.4 4.4 5.4 6.4 3.4 3.4 3.6 7.2 1.6 11.6-.8 1.8-.8 3.8-1.2 5.7 7.3 2.4 14.6 2.2 21.8 1.9 4.9-.2 9.4-2.3 13.1-5.7 3-2.7 2.8-7.4-.9-8.9-2.1-.8-4.6-.9-6.7-1.6-1.9-.5-3.4-1.6-5.8-2.7 4.9-4.4 8.9-8.1 13-11.9 0 .1.1.2.3.3a.94.94 0 00-.2.3c.7-.2.4-.2.2-.3 1.3-2.6 2.3-5.3 4-7.6 1.3-1.7 3.6-4 5.4-4.1 5.3-.4 6.6-3.5 7.9-7.1.7-1.9 1.7-4.6 4.3-3.9 1.7.4 2.7 3.1 3.1 5 1 4.1 0 8.2-1.9 12.4-.8 1.8-.5 4-.5 6 0 .4 1.6 1 1.9.8 2-1.1 4.1-2.3 5.7-3.8 4.7-4.4 2-11.3 7.9-15.4.9 1 2.3 1.9 2.5 3 .8 5.5.3 11-4.6 15.8-1.1 1.1-2.5 2.3-2.7 3.6-1.5 8.2-4 16.4-4.7 24.7-1.9-2.9-3.7-5.8-5.7-8.6-.8-.9-2.1-1.5-3.3-2.2-1.4-.7-4.6 1.3-5.5 3.6-.8 2-1.2 4.2-2.1 6.2-3.7 8-9.1 13.9-20 13.3-1.3-.1-2.9.9-4.2 1.6-.5.2-.8 1.2-.8 1.8 0 .7.5 1.7 1 1.8 2.1.4 4.5 1.1 6.6.7 3.9-.8 7.9-3.2 11.6-1.6 1.5.7 2.2 3.2 2.5 5 .1.7-2.3 2.6-3.4 2.6-3.9 0-7.7-.5-11.1-.8-8.1 4.8-15.8 9.2-23.4 13.7-1.1.7-2.3 2.6-2.1 3.6.1 1 1.8 1.9 3.1 2.4 3.9 1.5 7.9 2.8 11.9 4.2.06.2.13.366.2.5-1.4.5-2.8 1.1-4.1 1-10.8-.9-20.6 3.1-30.3 7.2-2 .9-4 2.8-4.8 4.6-1.4 3.1.5 8 3.2 9.1 1.3.6 3.1 1 4.4.6 3.9-1.1 7.7-2.4 11.3-4.3 2.9-1.5 4.4-.2 6.3.8 4.7 2.5 9 .7 13.2-2.2 2.9-2 4.2-4.7 3.6-7.5-.6-3.2-1.8-6.2-2.8-9.3l.6-.2c5.7 2.8 11.5 5.5 14.5 11 1.1 1.9 1.3 6.3-.3 7.9-7.7 7.7-15.6 15.2-28 16.2-7.2.6-14.4 1.4-21.4 3.9-3.9 1.5-7.3 3.3-8.7 7.4 4.5 4.2 9.1 8.3 13.5 12.6 2.2 2.2 1.7 5 .5 7.8-.47 1.2-.97 2.4-1.5 3.6 0 .133-.04.233-.1.3 0 .066-.04.133-.1.2v-.5c-2.1-1.3-5.1-1.2-6 .9-3.1 6.9-6.9 7.3-12.4 3.1-.9-.7-3-.5-4.505-.3-5.9 1.1-10.5 4.3-14.6 8.2-3.2 3-3.599 6.3-4 10-.599 7.5-1.599 8.1-10.199 8.4-2.1.1-4.7-1.4-6.6 2.4-.1 1.3-.2 3.4-.5 5.4-.6 4.1-4.3 7.1-8 6.5-3.1-.5-6.201-2.3-9.101-1.9-10 1.6-18.899 0-28.1-2.1-6.7-1.4-14.299-.8-21.5-.5-3.099.1-6.299 1.5-9.299 2.8-2.4 1.1-2.901 2.8-1.701 5.2 1.901 3.6-1.899 6.7-3.799 9.7-.9 1.4-4.1 2-6.4 2.6-2.9.8-6.601.5-7.201 4.4-1.5-6.1-6.1-8.8-13.1-9.1-1.299 0-2.499-.6-3.799-1-8 1.5-8.1 1.5-8 7.7 0 .7.299 1.4.299 2.1-.099 2.1-2.9 3.8-5 3.2-5.5-1.5-9.499-4.5-10.799-9.5-.7-2.6-.3-5.6-.9-8.3-1.7-7.6-8.1-11.3-17.301-10-2.299.3-4.999 1-6.799 2.3-8.2 6.3-18 10.9-25.201 18.4-.599.6-2.899.1-4.199-.2-.4-.1-.4-1.2-.5-1.9-.3-3.6 1.1-7 3-10.3 3.6-6.7 1.4-8.4-6.9-8.7-4-.134-8.034-.134-12.1 0-24.934.733-49.867 1.5-74.801 2.3-28.2.9-56.399 1.5-84.599 2.8-29 1.5-57.901 1.2-87.001 5.3-3.2.5-6.399 0-9.599 0-23.3.1-46.6.7-70 2.1-31.4 1.9-62.901 2.9-94.301 5.6-29.8 2.6-59.6 4.1-89.4 7.8-16.899 2.1-33.8 2.2-50.7 5.9-4.2.9-9.3 1.6-13-1.8 7.2-2.4 14.1-4.8 21-7 1.5-.5 3.3-.8 4.8-.7 4 0 7.9.5 11.9.5 2.3 0 5 .1 7.1-.7 9.5-3.6 19.3-3.3 28.9-4.2 27.4-2.5 54.801-4.8 82.201-7.1 9.7-.9 19.5-2.4 29-2.3 27.299.2 54.799-3.1 82.099-3.9 25-.8 50.001-2.9 74.901-3 27.3-.1 54.8-2.3 82.1-3.3 15.3-.6 30.7-2 46-3 5.5-2 10.9-1.7 16.4-1.5 4.6.1 9.4-.5 14.1-1.1 1.099-.2 2.1-1.9 3.2-2.8-.6-.4-1.101-1.2-1.7-1.3-11.3-1.6-21.8 1.8-32.1 6.7-1.1-5.2-5.501-6.1-10.6-5.9-51.5 2.1-103.101 5-154.501 5.7-39.4.6-79.1 3.5-118.6 5.9-21 1.3-42 3.8-63 5.4-21.799 1.7-43.599 2.8-65.299 4.4-4.9.3-9.701 1.4-14.601 1.9-20.933 2.333-41.9 4.6-62.9 6.8s-42 4.2-62.9 6.6c-4 .4-7.9 2-11.8 3.1.1.1.2.2.3.4-.2.133-.366.3-.5.5.5-4.6-.1-6.3-2.6-6.3-3 .1-6.1.8-9.2.8-2.2.1-4.6-.3-6.5-1.1-1-.4-1.5-1.9-1.8-3.1-.1-.4.7-1.5 1.3-1.7 5.2-1.9 10.4-3.6 15.7-5.3-.1.1-.2.3-.3.5.2-.134.434-.234.7-.3.9.5 1.8 1.1 2.9 1.4.5.2 1.6-.2 1.9-.6 1.2-1.7.5-2.5-1.6-2.1-1.1.3-2.1.8-3.2 1.3l-.4-.2c1.7-3.1 4.2-5.6 7.8-7.4 2.7-1.3 6.3-1.7 7.2-5.1 0-2.7-.1-5.3-.1-8.6 5.5-2.4 11-4.8 16.6-7.1l.4.2c.2-.067.4-.167.6-.3 1.6 2 4.1 2.6 7 1.8 2.5-.6 4.901-1.7 7.3-2.6.2.1.3.2.5.3l.6-.4c.8.6 1.6 1.2 2.5 1.6.2.1 1.4-.8 1.4-.9-.899-2.1-2.4-1.4-3.9-.7a1.116 1.116 0 00-.3-.2 3.853 3.853 0 00-.8.3c-4.6-3.7-9.4-1.8-14.3.8-.1-.1-.2-.1-.3-.2-.266.066-.5.166-.7.3-1.8-1-3.4-2.3-5.4-2.7-9.2-1.8-18.6-2.5-28.3-2.2-6.3.1-12.8.7-19.3-1.1-3.6-4.6-7.3-9.4-11.7-15.1-4.3-1.2-12.1 2.6-15.7-3.5.3-.7.5-1.5 1-2.1 1-1.1 2.2-2.2 3.2-3.4 4.2-4.9 3.1-10.1-2.3-11.8-5.1-1.7-10.5-2.1-16.3-1.5-7.2.8-14.4 1.2-21.6 1.6-.4.1-.9-1-1-1.6-.1-.6.1-1.6.5-1.8zm850.801 74.3l-.601.6c.2.066.401.166.601.3v-.9zm-762.1 14.9c-.1 0-.2.6-.2.8 0-.2.1-.7.2-.8zm288.999-236.7c-6.899-.3-13.9-.2-20.9-.3l-.2 1 .801-.8c.9 1.6 1.299 4.5 2.799 4.8 6 1.4 12.3 1.1 18.5-1.1.701-.2 1.601-1.4 1.5-1.5-.6-.8-1.5-2.1-2.5-2.1zm36.4 3.1c-.9-2.5-1.5-5.5-5.9-4.2-1.1.3-1.8 1.6-2.7 2.5.6.3 1.1.9 1.8 1 2.3.3 4.601.5 6.9.8 1.8-.867 3.634-1.734 5.5-2.6-2.6-.5-3.7 1.7-5.6 2.5zm40.801-8.2c-4.701.7-6.801 3.9-4.901 8.5.8.7 2.101 2.4 3.901 3.4.799.4 3.699-.3 3.899-.8.8-2.6 1.001-5.3 1.4-7.9.3-1.9-2-3.6-4.299-3.2zm15.199 1.3c-.4.2-.6 1.1-.9 1.6.701.2 1.4.7 1.9.5.4-.2.6-1 .9-1.6-.7-.2-1.4-.7-1.9-.5zm49.401-3.4c-1.1-.6-2.901-.2-4.401-.2 0 1.3-.599 2.8 0 3.8.901 1.4 2.601 1.2 4.101 0 1.6-1.3 2-2.8.3-3.6zm16.2-1.4c-6.3 2.9-12.2 6.8-18.2 10.3-.2.1-.101 1.4.3 1.6 2.5 1.9 5.9 1.8 8.6.5 5.6-2.6 10.799-5.9 16.199-8.9-1.2-3-3.999-4.9-6.899-3.5zm132.899-1.3c-.099-.2-.099-.3-.099-.4a3.879 3.879 0 00-.8.3c-1.5-.8-3.001-1.8-4.601-1.9-1.7 0-3.499.7-5.399 1.3-.1-.2-.3-.3-.5-.5l-1 .4c-4.4-2.4-8.9-1.7-13.601.7 0-.2-.199-.2-.199-.4a5.732 5.732 0 01-1 .3c-5.6-2.7-11.3-.2-17 1.5-.1-.1-.2-.1-.2-.2-.867.2-1.734.366-2.601.5-1.299.1-2.7.2-4 .1-3-.3-5.599.6-8 2.3-.7-1-.799-2.8-1.799-3.1-7.8-2.6-15.701-3.4-23.3 2.3h-.5c-.6-1-1-2.6-1.901-2.8-4.5-.9-9.099-.3-13.399 1.9-1 .5-1.9 2.6-1.5 3.5 1.1 3.4 3.9 5.4 8 5.9 3-2.8 2.399-8.4 8.8-8.5.066.066.099.133.099.2.1-.1.301-.1.401-.2 8.3.5 16.599 1.5 25.099.8l12-2.4c.734-.067 1.434-.134 2.101-.2.2 0 .433-.034.7-.1 1.9 1.8 4.4 2.2 7.4 1.3l9.6-2.8c.2.1.499.2.699.3.201-.067.367-.134.5-.2 1.401 2.2 3.701 2.8 6.5 2 2.401-.7 4.701-1.7 7.101-2.7.2.2.399.2.6.4.333-.134.633-.234.9-.3 2.9 2.4 6.3 2.1 10 .6.133.066.3.133.5.2a.883.883 0 00.399-.1c0 1.4 1.6 2.4 2 1.7 2-3.1.1-2.7-2-1.7zm334.405 1.6c-5.004-3.3-10.704-4.9-17.504-2.7l1.199 3.6c2.6 0 4.801.7 6.101 2.7-2.7.1-5.2-.2-6.5-2.3-3.7.2-7.8 1.8-10.9-.8l-.1.1c.8 3.2.799 6.7 5.799 7.6 3.8.7 7.2 2.6 11.1 2.9 3.3.3 6-1.8 6-5.3 1.405-.8 3.105-1.4 4.105-2.4.8-.8 1.2-3 .7-3.4zm-25.604-.6l7.199-2.4c-2.9-1.4-5.199-.3-7.199 2.4zm24.704 54.2c4.6 3 10 2.9 15.7 1.4 1.3-3.8.1-6.8-3.3-8.9-3.9-2.5-13 .1-14.3 4.2-.3 1 .8 2.7 1.9 3.3zm-25.505-6c3.6 2.8 8.3 3.2 13 1.8 3.701-1.1 7.201-3.1 10.705-4.9 1.9-.9 2.7-4 1.6-5.5-1.3-1.8-3.305-2.7-5.705-2.1-3.8 1-7.499 2.5-14.199 4.7.099 0-2.8 1.2-5.5 2.6-.6.3-1.2 1.3-1.2 1.8 0 .6.7 1.2 1.299 1.6zm-27-96.7c.901-1.5.101-2-2.099-1.3 0 .533-.034 1.033-.1 1.5.8 0 1.999.1 2.199-.2zm41.801 219.2l-.801.1s.301.6.301.7l.5-.8zm-74.5-219.9c.2-.1.4-.1.6-.2.8.7 1.5 1.5 2.5 2 1.7.9 3.6 1.5 5.4 2.3-.3-.6-.401-1.2-.701-1.8-1.6-3.5-1.699-3.6-7.199-2.5a1.567 1.567 0 00-.401-.3c-.2 0-.433.033-.699.1-2-1.7-4.501-2.3-7.301-1.1-3.4 1.5-6.7 3.3-10 5 .6-5.3-.299-6.9-4.5-6.8-1.299 0-3 .7-4.099 1.5-1.7 1.2-.401 3.9 2 4.4 2.2.4 4.499.6 6.699.9 2.2-.5 4.401-1.2 6.601-1.7 3.6-.8 7.1-1.5 10.6-2.2.2.1.3.2.5.4zm13.199 1.2a413.276 413.276 0 00-4.5 2.7c1.6-.9 3.1-1.8 4.5-2.7zm35.1 224.5c2 .2 2.7-.7 1.5-2.2-.3-.4-1.299-.6-1.899-.5-.4.1-.7.9-1 1.4.5.5.899 1.3 1.399 1.3zm-55.699-216.3c.333 0 .666.033 1 .1.4.2.766.366 1.099.5.401.666.767 1.333 1.1 2 .6-.267 1.201-.567 1.801-.9-.934-.334-1.901-.7-2.901-1.1a8.11 8.11 0 00-.699-1.3c-.5.2-.9.4-1.4.7-8.7-1.8-17.6-1.6-28 1.8 14.599 3.1 18.599 2.8 28-1.8zm29.4 251.1c1.3-.2 2.999-1.4 3.699-2.5.6-1 .8-3 0-3.7-1.299-1.5-3.599-3.5-5.199-3.1-2.9.5-5.6 2.6-8.301 4.1-.4.3-.199 1.4-.299 2.1 2.3 3.1 6 3.8 10.1 3.1zm-80.9-.6c3.5-.7 6.9-2 10.3-3.1.1.1.2.2.299.4.134-.067.267-.167.401-.3.3.6.5 1.3 1 1.4 5.9 1.3 12.1 1.3 18.4.4 1.5-.3 2.899-1.3 4.299-2.1.7-.4 1.601-1.5 1.601-1.5-.8-.9-1.601-2.1-2.701-2.3-7.9-1.6-15.399.3-22.599 4.1a1.15 1.15 0 01-.2-.3c-.134.066-.3.133-.5.2-2.7-3.4-6.401-4.2-11.101-2-1.1.5-2.399 2.2-2.299 3.2.1.8 2.1 2.2 3.1 1.9zm-85.1-184.6c2.3 1.5 5.4 2.4 8.4 2.5 7.1.3 14.1-1.3 21-3.6 2-.7 4.5 0 6.7.1.099 0 .199-.1.199-.1 3.1-1.7 6.001-.7 9.101-.5 3.9.2 7.899.2 11.799-.2 1.1-.1 2.2-2 3.1-3.2.2-.3-.5-1.3-1-1.6-4.2-2.1-8.999-2.3-13.799-1.3-4.2.9-6.901 3.6-9.201 6.8-.066 0-.1.033-.1.1-1-4-2.5-7-7.599-8.5-8.5-2.6-17.2.2-25.7.3-2.5 0-5.3 2.2-5 3.9.3 1.9.6 4.4 2.1 5.3zm-5.801 182.5l.6-.6c0 .3.101.6.201.9l.299-1.4-.5.5c-.3-1-1-1.1-2.1-.3l1.5.9zm-32.5-.8c2-.3 2.5-1.5 1.401-2.6-.401-.4-1.5-.7-1.901-.5-1.099.6-2 1.4-3 2.2 1.201.3 2.401 1.1 3.5.9zm-31 1.6c2.3.1 4.701.2 6.901-.3 1.3-.3 2.2-1.8 3.3-2.8-1.1-.7-2.2-2.1-3.4-2.1-4.1-.1-7.6 1.8-8.1 3.7.5.6.799 1.5 1.299 1.5zm-215-155.3c2.1.7 4.2 1.7 6.4 1.7 7.7.1 15.4-.3 23.1-.5.067.133.134.233.201.3a1.52 1.52 0 01.4-.3c1.4-.1 2.8-.2 4.2-.5.8-.1 2-.5 2-.7.1-1.7-1.1-2.1-2.9-1.1-1.2.7-2.2 1.5-3.3 2.3h-.601c-1.299-1.3-2.099-3.5-3.799-3.9-8-2.4-16.401-3-25.201 0-.6.2-1.3.9-1.6 1.5-.1.3.6 1.1 1.1 1.2zm-112 6c2.5 1.4 6.6 0 7.301-2.2-.201-.5-.201-1.1-.5-1.3-2.5-1.4-6.701-.1-7.301 2.2-.1.4.1 1.1.5 1.3zm-250.8 62.6c3.9-.3 7.7-1 10.3-4.3-7.4-3.3-8.9-3.4-11.8-.1-.7.9-.4 2.6-.3 3.8 0 .3 1.1.7 1.8.6z" fill="#EA3F3F"/><path d="M1097.83 151.426c-1.3.5-2.7.8-3.8 1.5-2 1.2-2.8 1-2.2-.9.1-.3 1.2-.6 1.9-.7 1.4-.1 2.8 0 4.1 0 .1 0 0 .1 0 .1zM1053.73 198.926c-.14 0-.24-.034-.3-.1.13 0 .23.033.3.1zM1052.93 198.625c.13.067.3.134.5.201-.14-.067-.3-.134-.5-.201zM324.826 82.126c0-.134.033-.267.1-.4.2 0-.1.4-.1.4z" fill="#EA3F3F"/><path d="M791.526 41.726c4 3.5 9 5.4 13.599 7.9-15.599 2.1-31.299 4.1-46.299 9.7-1.5.5-3.601 1.3-4.701.8-10.299-4.7-21.899-1.6-32.899-1.4-17.5.3-35.101-.5-52.7 4.8-1.5.4-3.4.9-4.7.4-12.1-4-25.1 0-37.7.1-7.2.1-14.2.1-21.1-1.8-8.9-2.3-18.6-1.3-28.2-.1-.6.1-1.7.9-1.7 1.3.6 8.7-7.2 5.2-11.5 6.6-.8.2-1.6.1-2.4.2-3.8.2-4.8-2.2-5.9-4.5.7.1 1.3.2 2 .2 2.2-.3 4.7-.7 5.4-3.1.4-1.7-2.5-4-4.7-3.7-22.4 3.2-44.6 1-67 3-16 1.4-31.9.4-47.9 1.7-29.6 2.2-59.3 3.6-88.9 5.5-8.8.6-17.5 1.5-26.5 2.3-1 3.7-1.9 6.9-2.8 10.1-9.5-.7-18.8-.7-28.5 2.1-6.2 1.8-12.9 2.3-19.3 2.4-12.9.2-25.7-.2-38.5-.3-3.2-.1-6.6-.8-9.5.1-8.7 2.7-17.7 2.3-26.4 4.1-5.9 1.2-11 1.5-16.1-.7-3.7-1.6-7.7-.7-11.8.6-7 2.4-14.2 3.6-21.5 3.2-3.5-.2-6-1.3-7.9-4.6 3-1.2 5.9-2.9 8.8-3.3 10.5-1.4 21-2.1 31.5-3.6 12-1.8 24.3-2 35.6-8 3-1.6 6.2-1.5 9.3-.7 6.2 1.6 12.1 2.5 18.1-2.7 2-1.7 6.1-2.4 9.2-2.4 7.2-.1 14.4-.7 21.6.1 9.4 1.2 19 1.5 28.8-.3 18.6-3.4 37.2-3.5 55.7-4.8 8.9-.6 17.8-.2 26.6-1.6 23.3-3.7 46.6-.4 69.9-6.4 1.5-.4 3.1-.1 4.7-.1l50.7-.6c8.8-.2 17.7.3 26.5-.8 29-3.5 57.9-3.5 86.8-4.7 5.6-.3 11.2-.9 16.9-1.3 23.3-1.4 46.7-5.5 70.1-5.3 4.7.1 9.8-.8 14.3-2.4 6.599-2.4 13.099-2.5 19-1.1 10.4 2.5 20.6 1 30.9-2.1l-.5-.3h.699c-.066.066-.099.133-.099.2 3.8 1.7 8.2 2.8 11 5.3z" fill="#EA3F3F"/><path d="M555.125 65.326l.201.4a.89.89 0 00-.4-.1l.199-.3zM796.025 345.426c3.3-2.2 8.401-1.8 9.301 1.7.6 2.6.199 5.5.299 8.9 5.1 2.1 11.301 3.5 13.801 9.1 1.1 2.7 4.399 3.6 7.599 3.9 8.7.9 17.4 1.5 26 2.4.9.1 1.3 1.9 2.2 3.2-5.4 2.1-10.7 4.5-16.1 5.8-3.8 1-8.799 1.6-11.699.2-9.1-4.4-20.201-2.8-29.201-6.5-2.4 3.2-4.499 6.2-6.899 8.9-1.4 1.6-5.5 1.5-6.5.2-3.6-4.6-5.201-10.1-3.701-15.7 2.3-8.4 6.1-16.4 14.9-22.1zM951.625 347.926c2.8-3.2 7.101-5.3 8.401-9.6.9-3 4.099-4.5 7.099-5.5 9.2-3 18.4-5.8 27.6-8.5 1.7-.5 2.901.4 3.101 2 .1.7.2 1.6-.3 2-4.7 4-9.601 7.8-14.301 11.8-4.6 4-8.999 8.3-13.299 12.2-3.9-.3-7.2-.2-10.1-1-2.9-.7-5.501-2.1-8.201-3.3l-.5.6c.1-.3.301-.6.401-.8.1 0 .099.1.099.1zM454.726 343.226c3.1.2 6.3.1 9.5.3 3.5.2 5.2 2.5 6.6 4.9-11.6-.6-23.3-.2-35.2.3-12.2.5-24.7 2.6-36.4-.2 5-1.5 10.1-3.7 14.8-3.6 13.6.4 27.2-2.2 40.7-1.7zM399.226 348.526l-1.601.4.401-.7 1.2.3zM1010.03 305.526c4.9-2.7 9.9-5.2 14.9-7.8 4.3-2.2 8.6-4.4 12.9-6.5.6-.3 2-.1 2.2.2.5 1.1 1 2.4.7 3.6-.4 1.3-1.4 2.8-2.6 3.6-6 3.9-12.2 7.6-17.7 11-3.3.5-5.7 1.2-8 1.2-1.3 0-2.6-1-3.6-1.9-1.1-1-.6-2.4 1.2-3.4zM1014.73 293.626c-1.2.6-3.2.499-4.5.199-1.4-.3-2.6-1.2-3.7-2.1-.2-.2.1-1.199.5-1.799 4.2-6.7 11.5-10.001 19.6-13.301 1.5.7 3.6 1.2 5.1 2.4 1.8 1.4 1.3 4.6-.4 5.5-5.5 3.1-11 6.201-16.6 9.101zM1116.23 192.626c8 .7 11.2 8.5 19.4 9.2 1.3.1 2.5 1.5 3.3 2.5.9 1 1.8 2.3 1.9 3.5 0 1.2-.6 2.8-1.5 3.8-.3.4-3.1.1-3.5-.5-2.3-3.8-5.2-4-9.1-1-.4.2-1.3 0-2-.1-4-5.334-8.04-10.667-12.1-16 1.3-.6 2.5-1.5 3.6-1.4zM356.525 349.125c-.133 0-.3.034-.5.1l.3-.6c.067.134.134.3.2.5z" fill="#EA3F3F"/><path d="M397.626 348.926l-.9-.3c.4-.1.9-.2 1.3-.4l-.4.7zM358.625 351.525c-.9-.1-1.4-1.4-2.1-2.4 13.7-2.4 27.3-4.9 40.2-.5-12.7 4.3-25.5 3.9-38.1 2.9zM356.026 349.226a.887.887 0 00-.401-.1l.601-.4c.1-.1-.2.5-.2.5z" fill="#EA3F3F"/><path d="M355.626 349.126c-7.5 5-15.6 5.4-24 4.5-.6-.1-1.2-.6-1.8-.9 1.1-.9 2.3-2.6 3.2-2.5 7.5.3 15.3-3.3 22.6-1.1zM30.225 231.326c-.6-.1-1.3-.8-1.3-1.3-.1-.6.4-1.5 1-1.9 4.1-2.7 8.7-4.3 13.5-3.1 2.8.7 5.5 1.8 8.6.9-5 2.3-10 4.7-15.1 6.4-1.9.6-4.5-.5-6.7-1zM52.525 225.726c.1-.1 0 .1 0 .1-.2.1-.3.1-.5.1.2-.067.367-.134.5-.2zM342.625 77.425c.1.2.201.3.301.4-.2.067-.367.1-.5.1-.1 0-.201-.1-.301-.1.1-.1.3-.2.5-.3v-.1zM369.826 80.025c-.4-.4-.8-.7-1.3-.7-6.7-.6-13.401-1.5-20.401.2-2.3.5-4.099-.1-5.199-1.7 3.7-.9 7.5-2 11.3-2.6 6.5-1.2 11.5 1 15.6 4.8zM762.126 383.026c-1.4-5.7-2.2-9-2.9-12.3-.1-.5.8-1.5 1-1.5.8 0 1.8.3 2.1.8 2.6 4.9 4.5 9.9 4.2 15.6 0 .5-.7 1.5-1.1 1.5-.8.1-1.9-.2-2.1-.7-.9-1.9-1.4-3.8-1.2-3.4zM512.625 360.525c7.1 1.4 14.4-2.9 21.5-1.1-7.1 3.8-14.3 4.1-21.5 1.1zM534.926 359.626c-.3-.1-.501-.1-.801-.2l1.201-.6-.4.8zM978.926 360.926c4.6-2.3 8.7-2.1 12.2 1-3.9 3.5-8.1 3.4-12.5 1.9-.5-.2-1.1-.8-1-1.2.1-.6.7-1.4 1.3-1.7zM747.325 421.826c2 .6 4.4 1.4 5.3 2.9 1.1 1.7-2 5.8-4.7 6.5-1.2.3-2.6-.6-4.4-1.1.3-1.8.2-3.9 1-5.8.3-1 2.3-2.7 2.8-2.5zM471.525 74.425c.5.2 1 .6 1.4 1.2 6.5-2.7 13-5.7 20.1-6-6.2 4-13.5 3.9-20.1 6.1-.5-.5-1-.9-1.4-1.3z" fill="#EA3F3F"/><path d="M464.326 74.226c-.3-.1-.3-.9-.5-1.5 1.6-.2 3.5-1 4.6-.6 1.2.5 2.1 1.4 3.1 2.3-1.4-.6-3.2-.1-4.8 0-.8 0-1.7.1-2.4-.2zM967.026 5.825c-1.8-.8-3.401-2-4.901-3 .3-1.1.301-1.9.801-2.3.4-.4 1.3-.6 2-.5 2.2.2 4.5.5 5.4 2.6.2.6.3 1.3.1 1.9-.3 1.4-1.7 2.1-3.4 1.3zM757.826 400.326c.6.1 1.799 0 1.899.2.6 1.7 1.3 3.4 1 5.1-.1 1-1.599 2.4-2.899 2.9-.7.2-2.5-.9-2.9-1.8-1.4-3.1-.1-5.8 2.9-6.4zM1035.83 262.725c2 .4 2.3 1.8 1.4 3.4-1.2 2.1-3 3.5-5.6 3.6-3.1 0-6.2-.2-9.2-.4 2.9-4.9 7-7.8 13.4-6.6zM606.625 355.426c1.3-.2 2.801.3 4.101.6.7.2 1.7 1 1.6 1.1-.6 1-1.501 1.9-2.201 2.9-1.5.1-3.199.7-4.299.3-1.1-.4-2.201-1.8-2.201-2.8 0-.6 1.9-1.9 3-2.1zM352.526 369.126c-1 1-2 2.4-3.2 2.6-1.3.3-2.9-.4-4.3-.8-.6-.2-1-.9-1.6-1.3 1.3-.8 2.4-1.9 3.8-2.3 3.4-.9 5.2-.1 5.3 1.8zM550.726 342.026c2-1.7 4.3-1.7 6.6-1 0 0-.4 1.5-1 1.8-1.4.7-2.9 1.2-4.4 1.6-.7.1-1.501-.3-2.301-.5.4-.6.501-1.5 1.101-1.9zM464.226 6.926c.3.1.6.1.8.2-.4.2-.8.4-1.1.6l.3-.8z" fill="#EA3F3F"/><path d="M465.025 7.126c5.7-3.4 12.1-3.4 18.3-4.4-2 .9-4 1.9-6 2.8-4 1.8-8.1 2.6-12.3 1.6zM485.326 3.325c-.9-.4-1.2-.7-.9-.9-.334.067-.7.167-1.1.3.733-.4 1.466-.766 2.2-1.1l.7.5c-.267.067-.534.1-.8.1 0 .4-.034.767-.1 1.1zM4.525 234.025c.2-1.1.1-2 .4-2.1 2.2-.866 4.4-1.6 6.6-2.2.4-.1.9.5 1.4.8-.5.5-.9 1.4-1.5 1.6-2.2.7-4.5 1.2-6.9 1.9zM443.025 8.026c.3 0 .6 0 .9-.1 2.1-.1 4 .8 6 1.2-3.1-.5-5.2-.9-6.9-1.1z" fill="#EA3F3F"/><path d="M443.026 8.026c-2.5.2-5.1.6-7.7.9 3.1-.9 4.9-1.2 7.7-.9zM431.625 10.226l-.699-.6c.2-.067.433-.1.699-.1v-.7c.6.3.801.4.801.6 1-.134 1.966-.3 2.9-.5-1 .4-2.201.8-3.701 1.3zM1122.23 217.126c-1.4 1.4-2.8 1.5-3.8.2-.4-.4-.4-1.3-.1-1.8 1.2-2.5 2.6-5 6.2-5.3 2 2.7-.3 4.8-2.3 6.9z" fill="#EA3F3F"/><path d="M1124.53 210.226c0-.1-.1-.1-.1-.2h.3c0 .066.03.1.1.1-.14.066-.24.1-.3.1zM1125.53 246.826c.7-.7 2.9-1.2 3.9-.9 1.9.6 1.4 3.7-.9 4.8-1.1.6-2.7 0-4.1-.1.3-1.3.2-2.9 1.1-3.8zM164.025 341.525l-2.3 2.3c-.7.2-1.4.401-2.1.401-.4 0-.8-.501-1.1-.701 1.1-.7 2.2-1.399 3.5-1.899.5-.3 1.3-.101 2-.101zM568.926 357.626c3-.7 6-1.2 7.1 1.8-2.2.5-4.3 1-6.4 1.3-2 .3-3-.6-2.4-1.9.2-.5 1.1-1 1.7-1.2z" fill="#EA3F3F"/><path d="M576.825 359.626c-.2.133-.4.233-.6.3a4.073 4.073 0 01-.2-.5c.134 0 .3-.034.5-.1l.3.3zM883.826 348.525c2-.4 3.1.2 2.9 1.9 0 .6-.3 1.3-.8 1.8-2.4 2.4-5.4 2.6-7.7.6-.1-.5-.5-1.2-.3-1.6 1.3-2.1 3.7-2.3 5.9-2.7zM406.125 71.726c-.066-.067-.133-.1-.199-.1l.199-.4v.5zM409.726 73.126c3.8 0 4.5 2.5 5.7 4.6-3.6-1.4-8.801-1.2-9.301-6 1.2.5 2.401 1.4 3.601 1.4zM143.925 123.726c.4.266.834.566 1.3.9-.6.5-1.1 1.3-1.7 1.4-2.3.6-3-.1-1.8-1.6.4-.4 1.4-.5 2.2-.7zM543.326 359.026c-1.1.8-2.1 2.1-3.2 2.4-2.3.6-3.5-.5-4.4-1.9 1.9-.3 3.9-.7 5.8-.9.6-.1 1.2.2 1.8.4zM534.926 359.626l.4-.8c.1.2.3.5.4.7-.267.066-.534.1-.8.1zM518.926 342.626c1.7.5 3.599.4 5.699-.1 2.1-.5 4.001-.1 5.101 1.5-4.6 2.3-7.7.5-10.8-1.4zM529.926 344.426c0-.2-.2-.3-.2-.4.1-.1.3-.1.5-.2.1.1.2.2.2.4-.134.066-.3.133-.5.2zM493.626 69.326c.8-1.7 2.1-2.2 3.6-1.1 1.4 1 1.1 2.4-.8 3.1-1.8.7-3-.1-3.2-1.7 0-.1.1-.1.2-.2l.2-.1zM248.925 58.526c0-.3 1.1-.6 1.8-.7.2 0 .4.7.6 1-1.7 1.2-2.6 1-2.4-.3zM386.026 77.626c-5.3.5-10.7.2-15.7 2.8 2-1.3 3.8-2.9 5.9-4 3.8-1.9 7.3-1.7 9.8 1.2zM658.326 36.926c.266 0 .533.033.8.1l.4-.8c.4.4.5.7.4.9.666.066 1.3.133 1.9.2-1 .1-2 .2-3.1.3l-.4-.7zM674.426 38.526l.6.5c-4.4-.6-8.8-1.167-13.2-1.7 7.2-.7 8.4-.4 12.6 1.2zM432.525 72.826l-17 5c5.4-3 10.8-5.8 17-5zM536.826 70.726c.3.1.6.1.9.1-.467.266-.9.466-1.3.6l.4-.7zM537.726 70.826c2.1-1 4.3-2 6.6-2.7 3.4-1.1 6.9-1.7 10.4-2.4-5.2 3.8-10.6 6.5-17 5.1zM555.026 65.426c.1-.1-.1.2-.1.2-.067 0-.134.033-.2.1l.3-.3zM783.225 394.526c1.5-.8 3.2 1.4 3.2 4.4 0 .6-.5 1.6-1 1.8-.6.2-1.8-.2-2-.7-.7-1.1-1.1-2.401-1.2-3.701-.1-.5.5-1.499 1-1.799zM701.325 386.026c1.1-.5 3.1-.4 4.1.2 1.5.8 1.2 2.3-.2 3.5-1.4 0-3.3.4-4.3-.2-1.4-.8-1.2-2.7.4-3.5zM1065.83 354.226c.1.5.4 1.1.2 1.2-.6.4-1.3.6-2 .9-.1-.5-.5-1.3-.3-1.3.6-.4 1.4-.5 2.1-.8zM387.426 77.526a957.57 957.57 0 0118.199-5.8c-5.2 5.1-11.499 6.1-18.199 5.8z" fill="#EA3F3F"/><path d="M387.425 77.526c-.333.133-.7.233-1.1.3-.133 0-.233-.067-.3-.2.2-.067.434-.1.7-.1h.7zM405.926 71.626c-.067 0-.167.033-.301.1l.401-.4c.1-.1-.1.3-.1.3zM324.926 82.025c-.1.1.2-.3.2-.3a.884.884 0 01.4-.1l-.6.4zM342.125 77.826c-5.1 3.6-11.1 2.6-16.6 3.8 2.2-1.6 4.3-3.4 6.8-4.4 3.4-1.5 7-1.7 9.8.6zM586.026 358.526c-1.1.8-2.2 2.1-3.5 2.5-2.2.7-4.4.3-5.7-1.4 2-.8 3.9-1.8 6-2.3.9-.3 2.1.7 3.2 1.2zM135.426 92.926c-6.1 2.6-12.5 1-18.8 2.6-7.1 1.8-14.3 2.8-21.5 3.7-17.4 2.3-17.4 2.2-26.6-9.9-.8-1.1-1.5-2.3-2.3-3.4l-.6-.5c.2.6.6 1.1.5 1.7-.2 1.6-1.4 2.5-2.6 1.8-.6-.3-.6-2.1-.2-2.9.7-1.2 1.7-1.3 2.5-.6 8.2 1.5 17.4-.7 25.1 3 1.9.9 4.6.8 7 .7 10.3 0 20.7-.3 31-.4 2.3 0 4.5.5 6.7.9.5.1 1 1.1 1 1.7 0 .5-.7 1.3-1.2 1.6zM289.826 19.125c.4-.4.6-1 1-1.2.5-.2 1.2-.1 1.7-.1-.3.5-.5 1.1-1 1.2-.4.3-1.1.1-1.7.1zM320.726 17.526c.4-.5.6-1.1 1.1-1.4.6-.2 1.3 0 2-.1-.334.533-.7 1.033-1.1 1.5h-2zM456.226 6.325c2.9-1.3 5.3-1.1 7 .8-4.4.667-8.834 1.334-13.3 2a591.036 591.036 0 006.3-2.8zM464.226 6.926l-.3.8c-.2-.3-.5-.4-.7-.6l1-.2zM418.625 45.126l2.201.1-1.701 1.2-.5-1.3zM434.025 45.526c.1-.4 0-1.2.2-1.3 1.9-.7 2.6-.2 1.7 1.1-.2.3-1.2.1-1.9.2zM491.625 42.726l1.901-.2-1.3 1.2-.601-1zM435.025 73.126h-1c.1 0 .3-.4.4-.6l-.3.6c-.6-.1-1.1-.2-1.6-.3.667-.134 1.334-.3 2-.5.2.266.367.533.5.8zM438.525 75.326c-.6.3-1.8.4-2 .1-.6-.7-1.1-1.5-1.5-2.3 1.1-.1 2.3-.2 3.4-.1 2.1.2 2.1 1.2.1 2.3zM536.826 70.626c0 .1-.4.8-.4.8l-.6-1.2 1 .4zM534.726 68.126c.333.666.7 1.366 1.1 2.1-1-.4-2.034-.8-3.1-1.2a26.192 26.192 0 012-.9zM675.026 38.825c-.3-1.9-.3-3.8 2.9-4.2 0 1.1.5 2.3 0 3.2-.7 1.5-1.9 1.7-2.9 1zM674.426 38.526l.6.3v.2l-.6-.5zM696.226 35.326l2.2.1-1.7 1.2-.5-1.3zM789.125 33.226l.6-.4.801.4a5.664 5.664 0 00-1 .3c-.1-.1-.301-.2-.401-.3zM780.625 36.226c1.7-5.7 3.9-6.4 8.5-3-2.6 1.7-5.4 2.8-8.5 3zM47.626 333.526l-1.7-.1 1.4-1 .3 1.1zM987.125 29.026c-.3-.4-.299-1.1-.199-1.6.1-.3.899-.4 1.299-.6.4.4 1 .8 1 1.3.1 1.8-.7 2.2-2.1.9zM142.526 345.526h-1.8l1.4-1.2.4 1.2zM296.726 354.226c-.4.4-.6 1-1.1 1.2-.5.2-1.2 0-1.8 0 .4-.4.6-1 1.1-1.2.5-.2 1.2-.1 1.8 0zM474.426 346.626c1.8-1.3 2.5-1.4 2.3.3 0 .1-1.3.1-2 .3-1.3.3-2.5.8-3.8 1.3 1.1-.7 2.5-1.1 3.5-1.9zM498.426 344.326l-1.801.2 1.101-1.3.7 1.1zM530.426 344.225c1.8-.7 3.6-1.4 5.5-2 .5-.1 1.099.4 1.699.6-.8 1-1.399 2.401-2.399 2.801-2.1.8-3.9.299-4.8-1.401zM495.426 361.826l-1.2 1.4-2-.2c.4-.4.7-1.2 1.2-1.3.6-.3 1.3 0 2 .1zM1112.43 193.726c.06.133.13.233.2.3-.14.133-.3.233-.5.3v-1c.13.133.26.233.4.3-.1 0-.1.1-.1.1zM1112.13 193.326c-2.47-1.867-4-4.267-4.6-7.201 3.3 1.6 4.9 3.901 4.6 7.201zM588.426 370.426c.133 0 .266.033.4.1l-.4.4c-.134 0-.3-.034-.5-.1.133-.067.3-.134.5-.2v-.2zM584.026 370.826c1.1-.4 2.6-.1 3.9 0-1.1.6-2.2 1.1-3.3 1.4-1.9.4-2.3-.6-.6-1.4zM1145.03 232.126c-.5.4-.9.8-1.4 1-.3 0-.7-.5-1-.8.5-.4.9-.8 1.4-1 .2-.1.7.5 1 .8zM993.026 286.226c2 .1 2.2 1 .5 2.3-.4.3-1.3.1-1.9.1-.1-.5-.5-1.1-.3-1.5.3-.4 1.2-.9 1.7-.9zM904.625 322.726c-.6.1-1.4-.2-2.1-.4.5-.5.8-1.4 1.4-1.6.5-.2 1.2.3 1.9.5-.4.5-.7 1.3-1.2 1.5zM841.526 350.826c.6.3 1.3.5 1.5.9.2.5-.201 1.2-.301 1.8l-1.6-1c.134-.6.267-1.167.401-1.7zM921.125 336.726c.2-.3.301-.5.401-.7 1.4-1.6 2.9-2.4 5-.8.1.1-.5 1.3-.6 1.3-1.4 0-2.901-.2-4.301-.4l-.5.6zM947.426 334.026h-1.801c.934-.467 1.901-.9 2.901-1.3-.4.466-.767.9-1.1 1.3zM89.525 338.426c.134-.2.3-.367.5-.5.3 1.2.1 1.3-.5.5zM1055.43 117.526l.1-.5 1 .1-.6.2c.3.3.9.8.9.8l-1.4-.6zM516.025 342.326l.4-1.1.5.2c.667.333 1.334.733 2 1.2a9.092 9.092 0 01-2.1-1.1l-.8.8zM1092.93 180.926c.6-1.3.9-2.701 3.5-3.101 4.2-.5 2 2.501 3.1 3.601l.1.299c-2.34 0-4.67.034-7 .1-.07.067-.17.134-.3.2.1 0-.7-.2-.7-.2.13-.4.3-.8.5-1.2.26.134.53.234.8.301zM621.126 342.126l-1.4.6.1-1.4 1.3.8z" fill="#EA3F3F"/><path d="M1106.53 179.226c3.5 1.7 1 4.1.8 6.2.1.3.2.5.2.7-2.7-1.4-5.3-2.9-7.9-4.4l-.1-.3c2.2-1.1 3.5-4 7-2.2zM588.426 370.426h-1.1c.7-1 1-1 1.1 0zM1087.43 216.526l-.6-.9 1.4-.2-.8 1.1zM719.026 370.726l-.5.5a3.853 3.853 0 00-.8-.3h-.2c-.1-.2-.2-.2-.3-.3 1.066-1.534 1.666-1.5 1.8.1zM1145.73 249.826l-1.1-.701 1.2-.5-.1 1.201zM920.625 333.726c1.1.4 1.4 1.2.9 2.3-.5-.4-1.1-.7-1.4-1.1-.2-.2.3-.8.5-1.2zM951.725 347.026c.1.1 0 .4-.2.8-1.2-1.4-1.1-1.7.2-.8zM924.225 392.926c.1.1-.9.8-1.3 1.2-.6-.3-1.6-.8-1.5-1 .6-1.6 1.7-1.7 2.8-.2zM931.125 391.426a384.57 384.57 0 00-8.199 2.7c2.6-1.3 5.099-3.2 8.199-2.7z" fill="#EA3F3F"/><path d="M932.026 391.526a1.202 1.202 0 01-.2.3c-.067-.067-.101-.167-.101-.3-.2-.067-.4-.1-.6-.1.134-.067.3-.1.5-.1-.1 0 .401.2.401.2zM934.426 397.526c-.067-.067-.1-.134-.1-.2l.1.2zM931.125 393.426c.1-.5.401-1 .701-1.6.8 1.866 1.633 3.7 2.5 5.5-4.4 0-4.501 0-3.201-3.9zM945.826 397.326l.6.6c-.2.1-.4.1-.5.2-.1.7-.6 1-1.8.7 0-.067.033-.167.1-.3-3.4.7-6.5.1-9.5-1.1 1.2-.5 2.5-.9 3.8-1.5 3.1-1.4 5.6-1 7.3 1.4z" fill="#EA3F3F"/><path d="M934.326 397.326c.133.066.266.1.4.1-.134.066-.234.1-.3.1l-.1-.2z" fill="#EA3F3F"/></svg>