<?xml version="1.0" encoding="utf-8"?>
<!-- Uploaded to: SVG Repo, www.svgrepo.com, Generator: SVG Repo Mixer Tools -->
<svg width="800px" height="800px" viewBox="0 0 1024 1024" class="icon"  version="1.1" xmlns="http://www.w3.org/2000/svg"><path d="M552.249 64h-80.495c0 103.715-18.799 156.04-18.799 156.04h118.107S552.249 167.715 552.249 64z" fill="#2577FF" /><path d="M605.015 324.36c-10.913-24.261-33.962-104.32-33.962-104.32H452.945s-23.042 80.059-33.957 104.32c-10.921 24.253-21.842 69.144-12.128 78.845 0 0-1.363 3.424-3.376 9.951h217.037c-2.014-6.527-3.378-9.951-3.378-9.951 9.708-9.701-1.206-54.585-12.128-78.845zM626.851 822.922c-26.704-48.069-10.142-98.04 2.477-189.64H394.675c12.614 91.599 29.175 141.571 2.471 189.64-30.325 54.592-1.207 116.458-1.207 116.458s36.823 20.618 116.065 20.618c79.23 0.009 116.053-20.618 116.053-20.618s29.124-61.866-1.206-116.458z" fill="#FCB814" /><path d="M552.249 64.001h-65.163c0 103.715 18.813 156.04 18.813 156.04h65.163s-18.813-52.325-18.813-156.04zM605.015 324.361c-10.915-24.263-33.962-104.32-33.962-104.32H505.89s23.047 80.058 33.961 104.32c10.921 24.26 21.836 69.144 12.128 78.845 0 0 1.365 3.424 3.378 9.952h65.163c-2.013-6.527-3.378-9.952-3.378-9.952 9.709-9.701-1.205-54.584-12.127-78.845zM626.851 822.924c-26.705-48.071-10.144-98.04 2.477-189.641h-65.163c-12.622 91.601-29.183 141.571-2.479 189.641 30.33 54.592 1.206 116.458 1.206 116.458s-26.752 14.879-83.459 19.334a413.545 413.545 0 0 0 32.57 1.284c79.23 0.007 116.053-20.618 116.053-20.618s29.125-61.866-1.205-116.458z" fill="#030504" /><path d="M476.452 519.81c11.629-1.538 23.547-4.386 35.553-7.874 41.97-12.178 85.084-32.598 121.356-36.213-3.684-29.583-9.272-51-12.84-62.567H403.484c-4.679 15.181-12.843 47.306-15.598 92.678 29.071 9.84 62.117 17.481 88.566 13.976z" fill="#FF3B30" /><path d="M636.443 511.797c-25.841 0.378-73.363 2.554-124.438 12.277-11.739 2.24-23.663 4.868-35.553 7.974-35.234 9.191-65.169 3.902-89.371-6.443-0.447 20.542 0.238 43.265 2.797 68.054 1.444 14.04 3.085 27.206 4.798 39.623h234.653a1170.17 1170.17 0 0 0 4.8-39.623c3.144-30.489 3.486-57.888 2.314-81.862z" fill="#FF3B30" /><path d="M620.52 413.158h-65.163c3.569 11.566 9.157 32.983 12.841 62.566-36.272 3.616-79.386 24.034-121.357 36.213a303.026 303.026 0 0 1-18.862 4.84c16.984 3.408 33.754 4.983 48.473 3.034 11.629-1.54 23.547-4.387 35.552-7.874 41.972-12.18 85.086-32.598 121.357-36.213-3.684-29.583-9.272-51-12.841-62.566zM408.233 532.707c-7.461-1.882-14.541-4.274-21.155-7.099-0.071 3.355 0.099 7.131 0.09 10.607 6.783-0.593 13.82-1.779 21.065-3.508zM636.441 511.797c-15.299 0.224-38.304 1.121-65.045 3.803 0.962 23.08 0.552 49.127-2.433 78.061a1168.352 1168.352 0 0 1-4.798 39.622h65.163a1165.186 1165.186 0 0 0 4.798-39.622c3.146-30.489 3.488-57.889 2.315-81.864z" fill="#030504" /></svg>