<svg width="319" height="597" viewBox="0 0 319 597" fill="none" xmlns="http://www.w3.org/2000/svg">
<rect width="62.8766" height="597" rx="31.4383" fill="#EA3F3F"/>
<path fill-rule="evenodd" clip-rule="evenodd" d="M88.0272 574.287C88.0272 586.569 97.3629 596.979 109.645 596.999C109.775 597 109.904 597 110.034 597C225.208 597 318.574 510.653 318.574 404.138C318.574 352.972 297.03 306.459 261.873 271.936C251.861 262.105 247.78 247.515 250.978 233.853C254.07 220.642 255.698 206.928 255.698 192.862C255.698 109.08 197.931 37.7752 117.224 11.1555C102.326 6.24184 88.0272 18.1628 88.0272 33.8499V33.8499C88.0272 45.3721 95.9557 55.2246 106.719 59.3356C163.408 80.9871 203.301 132.616 203.301 192.862V192.862C203.301 212.232 182.436 222.316 163.623 217.703C146.523 213.51 128.56 211.276 110.034 211.276C109.904 211.276 109.775 211.276 109.645 211.276C97.3629 211.297 88.0272 221.707 88.0272 233.989V239.088C88.0272 250.785 98.3374 259.734 110.034 259.734V259.734C119.787 259.734 129.331 260.561 138.589 262.143C158.76 265.59 165.158 289.42 149.169 302.191C136.607 312.225 122.297 320.439 106.719 326.388C95.9548 330.499 88.0272 340.352 88.0272 351.874V351.874C88.0272 367.561 102.319 379.483 117.217 374.57C147.303 364.648 174.201 348.517 196.107 327.845C209.92 314.81 232.232 312.343 242.813 328.116C257.625 350.195 266.177 376.243 266.177 404.138C266.177 483.89 196.27 548.542 110.034 548.542V548.542C98.3374 548.542 88.0272 557.491 88.0272 569.187V574.287Z" fill="#FFCB14"/>
</svg>
